<?xml version="1.0" encoding="UTF-8"?>
<svg version="1.1" xmlns="http://www.w3.org/2000/svg" width="740" height="493">
<path d="M0 0 C244.2 0 488.4 0 740 0 C740 162.69 740 325.38 740 493 C495.8 493 251.6 493 0 493 C0 330.31 0 167.62 0 0 Z " fill="#FDFDFD" transform="translate(0,0)"/>
<path d="M0 0 C6.81424086 4.80094243 9.11742901 9.36963199 10.96875 17.4140625 C12.04521915 20.89105787 13.97640215 22.6617274 16.75 24.9375 C19.59608749 29.20663124 18.50324156 33.08270287 17.93945312 37.95703125 C17.50307436 42.69107962 18.01413201 45.0836758 20.75 48.9375 C20.9375 51.75 20.9375 51.75 20.75 53.9375 C21.636875 54.081875 22.52375 54.22625 23.4375 54.375 C28.2069507 56.62474089 29.72311929 60.20541993 31.75 64.9375 C32.6425945 67.95654597 32.93233433 70.78076154 33.06640625 73.921875 C33.10830078 74.85644531 33.15019531 75.79101562 33.19335938 76.75390625 C33.23267578 77.72199219 33.27199219 78.69007813 33.3125 79.6875 C33.35568359 80.67105469 33.39886719 81.65460938 33.44335938 82.66796875 C33.54922052 85.09101275 33.65130171 87.5141554 33.75 89.9375 C32.1 89.9375 30.45 89.9375 28.75 89.9375 C28.57984375 90.72253906 28.4096875 91.50757813 28.234375 92.31640625 C26.012462 101.94863547 26.012462 101.94863547 23.5625 105.75 C21.11681618 110.05103016 21.15085537 113.39637545 22.28735352 118.21655273 C23.02116575 120.74435414 23.80917017 123.24748943 24.625 125.75 C30.13329277 142.89423179 30.49752488 157.70010155 27.75 175.5625 C25.53530179 190.75758117 25.30099379 205.58666859 25.75 220.9375 C25.09 220.9375 24.43 220.9375 23.75 220.9375 C23.688125 221.68 23.62625 222.4225 23.5625 223.1875 C22.4750532 226.86808917 20.88134217 227.7656936 17.75 229.9375 C15.61243698 230.82374209 13.44242048 231.63480196 11.25 232.375 C6.26806285 234.20750106 3.18184891 235.77768314 -0.25 239.9375 C-5.47256403 244.73175852 -9.11284564 247.22318602 -16.3125 247.1875 C-17.87677734 247.19523437 -17.87677734 247.19523437 -19.47265625 247.203125 C-22.25 246.9375 -22.25 246.9375 -25.25 244.9375 C-26.88628178 239.28489022 -26.85406099 232.76587223 -26.25 226.9375 C-24.15784488 223.25819272 -23.23851981 222.2670066 -19.25 220.9375 C-17.4800313 220.83747037 -15.70896509 220.75610446 -13.9375 220.6875 C-9.87843602 220.29710254 -6.59882222 219.92371111 -3.53125 216.9453125 C-0.4518702 212.11969903 1.08792927 206.37232419 2.75 200.9375 C2.36328125 201.90171875 1.9765625 202.8659375 1.578125 203.859375 C1.0526072 205.1356325 0.52653619 206.41166231 0 207.6875 C-0.25265625 208.32171875 -0.5053125 208.9559375 -0.765625 209.609375 C-2.37840409 213.48004482 -3.82130172 216.45921282 -7.25 218.9375 C-10.4921875 219.625 -10.4921875 219.625 -14.125 219.9375 C-19.82597207 220.43002458 -22.78961186 221.55469798 -27.25 224.9375 C-30.71606749 191.76041934 -30.71606749 191.76041934 -31.25 177.9375 C-31.33765625 176.63296875 -31.4253125 175.3284375 -31.515625 173.984375 C-31.92916029 164.84900459 -31.92916029 164.84900459 -28.875 160.75 C-26.14666103 159.06504006 -23.26850056 158.32896876 -20.1875 157.5 C-16.21425548 156.41584632 -13.75589159 155.30148862 -11.2578125 151.81640625 C-9.62800097 148.77788166 -8.49871934 145.5801818 -7.4375 142.3046875 C-5.35731398 138.1580009 -2.42175622 136.35986019 1.87109375 134.8125 C3.51271484 134.379375 3.51271484 134.379375 5.1875 133.9375 C10.09634328 132.51988388 13.87052822 131.27815625 17.75 127.9375 C18.08 126.9475 18.41 125.9575 18.75 124.9375 C18.0384375 126.0821875 18.0384375 126.0821875 17.3125 127.25 C13.39092335 131.36287307 8.719325 132.1530592 3.33984375 133.57421875 C-1.9640118 135.10605015 -5.48240555 136.95168378 -8.25 141.9375 C-8.94444387 143.63473155 -9.60971436 145.34410496 -10.25 147.0625 C-11.88313658 151.35109094 -13.0817496 153.67214652 -17.25 155.9375 C-19.76674229 156.76413731 -22.2764528 157.49105763 -24.84765625 158.12890625 C-27.44695268 159.00379139 -29.15490845 160.19078395 -31.25 161.9375 C-31.58764274 151.63939651 -29.45584678 142.37797079 -26.75 132.5 C-26.53641846 131.71826416 -26.32283691 130.93652832 -26.1027832 130.13110352 C-24.46529059 124.31444222 -24.46529059 124.31444222 -23.10546875 121.93359375 C-21.66668164 118.57642382 -22.00459467 115.02763067 -22.0625 111.4375 C-22.06314453 110.67824219 -22.06378906 109.91898437 -22.06445312 109.13671875 C-22.09252201 105.57508859 -22.29282161 102.36329159 -23.25 98.9375 C-24.24 98.9375 -25.23 98.9375 -26.25 98.9375 C-26.36472656 99.62585938 -26.47945312 100.31421875 -26.59765625 101.0234375 C-27.34259772 104.3511401 -28.45595589 107.38314281 -29.6875 110.5625 C-30.11933594 111.68914062 -30.55117188 112.81578125 -30.99609375 113.9765625 C-32.25 116.9375 -32.25 116.9375 -34.25 119.9375 C-33.59 120.659375 -32.93 121.38125 -32.25 122.125 C-28.07735279 128.66261247 -29.77470793 137.06390123 -31.30224609 144.25073242 C-32.73544326 150.50795844 -34.33421406 156.72213078 -35.9375 162.9375 C-36.47474306 165.06083516 -37.01055948 167.18453181 -37.54492188 169.30859375 C-38.33841852 172.46034385 -39.13332949 175.61167581 -39.93453979 178.76147461 C-42.10135885 187.28436882 -44.14985831 195.83226538 -46.17114258 204.390625 C-47.47810336 209.91966426 -48.8544266 215.43023723 -50.25 220.9375 C-53.78568309 235.00023954 -57.20387096 249.08626118 -60.3125 263.25 C-61.81814004 270.10811178 -63.44803601 276.92416587 -65.1875 283.7265625 C-65.97101953 286.79731104 -66.71216793 289.8759364 -67.4375 292.9609375 C-73.77343967 319.66936012 -73.77343967 319.66936012 -83.25 327.9375 C-84.57297815 328.62448692 -85.90530407 329.29405996 -87.25 329.9375 C-79.19127136 329.98402462 -71.1325997 330.01947078 -63.07376957 330.04112434 C-59.3309508 330.05152166 -55.58822453 330.06560595 -51.84545898 330.08837891 C-48.22741739 330.11025296 -44.60946428 330.12209903 -40.99136162 330.12725449 C-39.61719815 330.13092429 -38.24303903 330.13808985 -36.86891365 330.14896011 C-29.33833248 330.20611426 -22.52775148 329.94348014 -15.25 327.9375 C-15.31264038 327.13729431 -15.37528076 326.33708862 -15.43981934 325.51263428 C-16.03309131 317.92319241 -16.6218663 310.3334207 -17.20575714 302.7432518 C-17.50600071 298.84231289 -17.80790221 294.94151794 -18.11376953 291.04101562 C-18.40960182 287.26766256 -18.7008481 283.49397957 -18.98908997 279.72003937 C-19.09911709 278.28963153 -19.21071866 276.85934378 -19.32402039 275.42919159 C-19.99694067 266.91999696 -20.40815581 258.4771605 -20.25 249.9375 C-21.57 249.9375 -22.89 249.9375 -24.25 249.9375 C-23.92 248.9475 -23.59 247.9575 -23.25 246.9375 C-22.59 247.2675 -21.93 247.5975 -21.25 247.9375 C-14.49124479 248.70382726 -8.75546603 248.13718242 -3.25 243.9375 C-2.24252502 242.68898934 -1.26502521 241.41592232 -0.3125 240.125 C3.67336784 235.12166238 8.95683729 233.42256517 14.79663086 231.28393555 C15.51858643 231.0187915 16.24054199 230.75364746 16.984375 230.48046875 C17.63631836 230.25383545 18.28826172 230.02720215 18.95996094 229.79370117 C22.22734035 228.23086708 23.76054856 225.92167717 25.75 222.9375 C26.08 231.8475 26.41 240.7575 26.75 249.9375 C22.03617597 250.526728 17.63245833 251.06717495 12.9375 251.25390625 C11.41962891 251.31674805 11.41962891 251.31674805 9.87109375 251.38085938 C8.84113281 251.42017578 7.81117188 251.45949219 6.75 251.5 C5.68910156 251.54318359 4.62820313 251.58636719 3.53515625 251.63085938 C0.94020849 251.73605996 -1.65482084 251.83820119 -4.25 251.9375 C-3.90428955 252.71544922 -3.5585791 253.49339844 -3.20239258 254.29492188 C2.17042633 268.45397004 1.75483007 283.30367807 2.02044678 298.24053955 C2.09117435 301.93551625 2.18842712 305.62979455 2.28320312 309.32421875 C2.46422528 316.5282239 2.61662106 323.73243811 2.75 330.9375 C5.64987498 330.93147741 8.5391132 330.88400993 11.4375 330.8125 C12.66243164 330.81636719 12.66243164 330.81636719 13.91210938 330.8203125 C18.47990437 330.73780379 18.47990437 330.73780379 22.35986328 328.60176086 C23.57343723 327.11129111 24.6686746 325.52652397 25.75 323.9375 C28.25 322.29296875 28.25 322.29296875 30.75 321.125 C31.575 320.72667969 32.4 320.32835937 33.25 319.91796875 C35.74767708 318.93841102 38.10815022 318.37623577 40.75 317.9375 C42.75 320.9375 42.75 320.9375 42.75 323.9375 C39.73350694 325.40493436 36.71108949 326.85975103 33.6875 328.3125 C32.83994141 328.725 31.99238281 329.1375 31.11914062 329.5625 C26.38018991 331.83134127 21.85354374 333.67719476 16.75 334.9375 C16.75 334.2775 16.75 333.6175 16.75 332.9375 C15.91533115 332.93787972 15.08066229 332.93825944 14.22070044 332.93865067 C-35.20579879 332.96100982 -84.6322975 332.97817698 -134.05880078 332.98856533 C-139.9883379 332.98981609 -145.917875 332.99111041 -151.84741211 332.99243164 C-153.02791801 332.99269395 -154.20842392 332.99295626 -155.42470273 332.99322652 C-174.56036266 332.99758245 -193.69601961 333.00546958 -212.83167777 333.0146528 C-232.4543574 333.02399147 -252.07703546 333.02955606 -271.69971722 333.03158849 C-283.81613175 333.03296328 -295.93253782 333.03731146 -308.04894974 333.04541647 C-316.34815524 333.05068655 -324.64735635 333.05230369 -332.9465634 333.05100138 C-337.74074669 333.05035841 -342.53491516 333.05137088 -347.32909584 333.05670547 C-351.71291258 333.06154805 -356.09670445 333.06183294 -360.4805223 333.05839889 C-362.07141357 333.05797405 -363.66230634 333.05926256 -365.25319461 333.06238318 C-367.40615906 333.06636279 -369.55903225 333.06425352 -371.71199512 333.06054783 C-372.91077221 333.06092755 -374.10954929 333.06130727 -375.34465295 333.0616985 C-378.25 332.9375 -378.25 332.9375 -381.25 331.9375 C-381.25 331.2775 -381.25 330.6175 -381.25 329.9375 C-381.8275 329.916875 -382.405 329.89625 -383 329.875 C-385.90463222 328.66473657 -386.95450157 326.93248329 -388.3828125 324.18969727 C-391.79493396 315.3279798 -391.97765525 304.67567355 -393.125 295.3125 C-393.29658586 293.92869526 -393.46830105 292.54490655 -393.64013672 291.16113281 C-394.56521596 283.68108742 -395.45882339 276.19766275 -396.328125 268.7109375 C-396.416315 267.95311981 -396.504505 267.19530212 -396.59536743 266.41452026 C-397.01983083 262.76301838 -397.4407071 259.11116823 -397.85498047 255.45849609 C-398.5313579 249.55896716 -399.25317641 243.68743495 -400.2734375 237.8359375 C-401.6355387 229.99890132 -402.33040775 222.09602964 -403.10546875 214.18359375 C-403.86601376 206.70188405 -403.86601376 206.70188405 -405.21875 199.3125 C-406.99599835 191.02599512 -407.4669604 182.48782258 -408.25 174.0625 C-408.57833716 170.54377731 -408.91074162 167.02549978 -409.25 163.5078125 C-409.33118576 162.66530441 -409.41237152 161.82279633 -409.49601746 160.95475769 C-410.05241804 155.38934202 -410.87209244 149.91616223 -411.86181641 144.41015625 C-412.42025872 140.85298409 -412.47915919 137.47662622 -412.4375 133.875 C-412.43105469 132.62589844 -412.42460937 131.37679687 -412.41796875 130.08984375 C-412.25 126.9375 -412.25 126.9375 -411.25 123.9375 C-410.59 123.9375 -409.93 123.9375 -409.25 123.9375 C-409.0025 123.339375 -408.755 122.74125 -408.5 122.125 C-407.00713941 119.51249397 -405.83437582 118.48307613 -403.25 116.9375 C-400.3522253 116.56784821 -400.3522253 116.56784821 -396.92063904 116.5748291 C-394.96732414 116.56724579 -394.96732414 116.56724579 -392.97454834 116.55950928 C-391.53307984 116.56878308 -390.09161258 116.57825003 -388.65014648 116.58789062 C-387.13047642 116.58701976 -385.61080658 116.58468424 -384.09114075 116.58099365 C-380.81828655 116.57516483 -377.54558162 116.57771838 -374.27273369 116.58613586 C-369.08986954 116.59738465 -363.90741702 116.57757149 -358.72462463 116.55114746 C-343.98651159 116.47938263 -329.24879246 116.4243176 -314.51049805 116.45703125 C-306.37037075 116.47484637 -298.23133258 116.45348115 -290.09143311 116.38852835 C-285.78739107 116.3558665 -281.48539379 116.34326998 -277.18133354 116.37922668 C-273.12621826 116.41298603 -269.07447843 116.39530689 -265.01963615 116.33960724 C-263.53911059 116.32826693 -262.05829978 116.33535317 -260.57799149 116.36313629 C-253.39412597 116.48805405 -247.74066778 116.07284129 -242.31722647 111.00351095 C-239.61590071 108.20370286 -236.99806212 105.43362425 -235.25 101.9375 C-234.59 101.9375 -233.93 101.9375 -233.25 101.9375 C-233.25 101.2775 -233.25 100.6175 -233.25 99.9375 C-232.59 99.9375 -231.93 99.9375 -231.25 99.9375 C-231.02054688 99.38320312 -230.79109375 98.82890625 -230.5546875 98.2578125 C-228.88635335 95.29077511 -226.78722062 93.21040477 -224.375 90.8125 C-223.51132812 89.94367188 -222.64765625 89.07484375 -221.7578125 88.1796875 C-217.58326633 84.4473051 -214.79414724 83.68683168 -209.19970703 83.6628418 C-207.97808868 83.65330978 -206.75647034 83.64377777 -205.49783325 83.63395691 C-203.52277298 83.63532402 -203.52277298 83.63532402 -201.5078125 83.63671875 C-200.13784658 83.63282931 -198.76788187 83.62849413 -197.3979187 83.62373352 C-194.52809743 83.6162786 -191.65839919 83.61655686 -188.78857422 83.62182617 C-185.12116229 83.62761426 -181.45425648 83.61070289 -177.78692818 83.5874815 C-174.95752038 83.57270681 -172.12823334 83.5718776 -169.29879379 83.57499123 C-167.2925265 83.57423189 -165.28627787 83.56038626 -163.28005981 83.54631042 C-161.43817581 83.55565361 -161.43817581 83.55565361 -159.55908203 83.56518555 C-158.48304718 83.56455612 -157.40701233 83.5639267 -156.29837036 83.5632782 C-151.51423763 84.15058438 -148.25539696 85.84831996 -145 89.375 C-141.74951314 94.13464147 -140.76060604 98.1597555 -140.125 103.875 C-140.03863281 104.57818359 -139.95226562 105.28136719 -139.86328125 106.00585938 C-139.42710233 109.69953326 -139.25 113.20544109 -139.25 116.9375 C-126.05 116.9375 -112.85 116.9375 -99.25 116.9375 C-98.59 115.2875 -97.93 113.6375 -97.25 111.9375 C-92.11386337 106.10729085 -87.93240597 103.68499934 -80.279953 103.14021301 C-79.3870607 103.09007553 -78.4941684 103.03993805 -77.57421875 102.98828125 C-76.6490596 102.92593796 -75.72390045 102.86359467 -74.77070618 102.79936218 C-71.8269574 102.60384177 -68.88243353 102.42668159 -65.9375 102.25 C-63.93677012 102.12035154 -61.93611745 101.98950569 -59.93554688 101.85742188 C-55.04115066 101.53690014 -50.14597794 101.23283506 -45.25 100.9375 C-44.26 96.9775 -43.27 93.0175 -42.25 88.9375 C-43.24 88.6075 -44.23 88.2775 -45.25 87.9375 C-44.53502401 85.79257204 -43.81955766 83.64782639 -43.1015625 81.50390625 C-42.56599944 79.88984694 -42.03872035 78.27299141 -41.5234375 76.65234375 C-40.26622138 72.73563201 -38.86520842 69.07563031 -37.0625 65.375 C-35.02877624 61.00057531 -35.08254318 57.71001924 -35.25 52.9375 C-34.59 52.2775 -33.93 51.6175 -33.25 50.9375 C-33.14794286 47.93347021 -33.31980516 44.98156948 -33.47265625 41.98046875 C-33.21639562 38.47824014 -32.06522554 36.88367757 -30.25 33.9375 C-30.03650984 31.46982833 -30.03650984 31.46982833 -30.3125 29 C-30.48901624 23.99870647 -29.04716187 22.09086156 -26.25 17.9375 C-25.86132068 15.26196826 -25.86132068 15.26196826 -25.75 12.375 C-25.52731783 8.88315409 -25.32816943 7.08758531 -23.6875 3.9375 C-16.90677555 -1.62617134 -8.27357254 -2.70482179 0 0 Z " fill="#FE4F5A" transform="translate(583.25,102.0625)"/>
<path d="M0 0 C6.81424086 4.80094243 9.11742901 9.36963199 10.96875 17.4140625 C12.04521915 20.89105787 13.97640215 22.6617274 16.75 24.9375 C19.59608749 29.20663124 18.50324156 33.08270287 17.93945312 37.95703125 C17.50307436 42.69107962 18.01413201 45.0836758 20.75 48.9375 C20.9375 51.75 20.9375 51.75 20.75 53.9375 C21.636875 54.081875 22.52375 54.22625 23.4375 54.375 C28.2069507 56.62474089 29.72311929 60.20541993 31.75 64.9375 C32.6425945 67.95654597 32.93233433 70.78076154 33.06640625 73.921875 C33.12924805 75.32373047 33.12924805 75.32373047 33.19335938 76.75390625 C33.23267578 77.72199219 33.27199219 78.69007813 33.3125 79.6875 C33.35568359 80.67105469 33.39886719 81.65460938 33.44335938 82.66796875 C33.54922052 85.09101275 33.65130171 87.5141554 33.75 89.9375 C32.1 89.9375 30.45 89.9375 28.75 89.9375 C28.57984375 90.72253906 28.4096875 91.50757813 28.234375 92.31640625 C26.012462 101.94863547 26.012462 101.94863547 23.5625 105.75 C21.11681618 110.05103016 21.15085537 113.39637545 22.28735352 118.21655273 C23.02116575 120.74435414 23.80917017 123.24748943 24.625 125.75 C30.13329277 142.89423179 30.49752488 157.70010155 27.75 175.5625 C25.53530179 190.75758117 25.30099379 205.58666859 25.75 220.9375 C25.09 220.9375 24.43 220.9375 23.75 220.9375 C23.688125 221.68 23.62625 222.4225 23.5625 223.1875 C22.4750532 226.86808917 20.88134217 227.7656936 17.75 229.9375 C15.61243698 230.82374209 13.44242048 231.63480196 11.25 232.375 C6.26806285 234.20750106 3.18184891 235.77768314 -0.25 239.9375 C-5.47256403 244.73175852 -9.11284564 247.22318602 -16.3125 247.1875 C-17.35535156 247.19265625 -18.39820313 247.1978125 -19.47265625 247.203125 C-22.25 246.9375 -22.25 246.9375 -25.25 244.9375 C-26.88628178 239.28489022 -26.85406099 232.76587223 -26.25 226.9375 C-24.15784488 223.25819272 -23.23851981 222.2670066 -19.25 220.9375 C-17.4800313 220.83747037 -15.70896509 220.75610446 -13.9375 220.6875 C-9.87843602 220.29710254 -6.59882222 219.92371111 -3.53125 216.9453125 C-0.4518702 212.11969903 1.08792927 206.37232419 2.75 200.9375 C2.36328125 201.90171875 1.9765625 202.8659375 1.578125 203.859375 C1.0526072 205.1356325 0.52653619 206.41166231 0 207.6875 C-0.37898438 208.63882813 -0.37898438 208.63882813 -0.765625 209.609375 C-2.37840409 213.48004482 -3.82130172 216.45921282 -7.25 218.9375 C-10.4921875 219.625 -10.4921875 219.625 -14.125 219.9375 C-19.82597207 220.43002458 -22.78961186 221.55469798 -27.25 224.9375 C-30.71606749 191.76041934 -30.71606749 191.76041934 -31.25 177.9375 C-31.33765625 176.63296875 -31.4253125 175.3284375 -31.515625 173.984375 C-31.92916029 164.84900459 -31.92916029 164.84900459 -28.875 160.75 C-26.14666103 159.06504006 -23.26850056 158.32896876 -20.1875 157.5 C-16.21425548 156.41584632 -13.75589159 155.30148862 -11.2578125 151.81640625 C-9.62800097 148.77788166 -8.49871934 145.5801818 -7.4375 142.3046875 C-5.35731398 138.1580009 -2.42175622 136.35986019 1.87109375 134.8125 C3.51271484 134.379375 3.51271484 134.379375 5.1875 133.9375 C10.09634328 132.51988388 13.87052822 131.27815625 17.75 127.9375 C18.08 126.9475 18.41 125.9575 18.75 124.9375 C18.275625 125.700625 17.80125 126.46375 17.3125 127.25 C13.39092335 131.36287307 8.719325 132.1530592 3.33984375 133.57421875 C-1.9640118 135.10605015 -5.48240555 136.95168378 -8.25 141.9375 C-8.94444387 143.63473155 -9.60971436 145.34410496 -10.25 147.0625 C-11.88313658 151.35109094 -13.0817496 153.67214652 -17.25 155.9375 C-19.76674229 156.76413731 -22.2764528 157.49105763 -24.84765625 158.12890625 C-27.44695268 159.00379139 -29.15490845 160.19078395 -31.25 161.9375 C-31.58764274 151.63939651 -29.45584678 142.37797079 -26.75 132.5 C-26.53641846 131.71826416 -26.32283691 130.93652832 -26.1027832 130.13110352 C-24.46529059 124.31444222 -24.46529059 124.31444222 -23.10546875 121.93359375 C-21.66668164 118.57642382 -22.00459467 115.02763067 -22.0625 111.4375 C-22.06314453 110.67824219 -22.06378906 109.91898437 -22.06445312 109.13671875 C-22.09252201 105.57508859 -22.29282161 102.36329159 -23.25 98.9375 C-24.24 98.9375 -25.23 98.9375 -26.25 98.9375 C-26.36472656 99.62585938 -26.47945312 100.31421875 -26.59765625 101.0234375 C-27.34259772 104.3511401 -28.45595589 107.38314281 -29.6875 110.5625 C-30.33525391 112.25246094 -30.33525391 112.25246094 -30.99609375 113.9765625 C-32.25 116.9375 -32.25 116.9375 -34.25 119.9375 C-33.26 121.0203125 -33.26 121.0203125 -32.25 122.125 C-28.07735279 128.66261247 -29.77470793 137.06390123 -31.30224609 144.25073242 C-32.73544326 150.50795844 -34.33421406 156.72213078 -35.9375 162.9375 C-36.47474306 165.06083516 -37.01055948 167.18453181 -37.54492188 169.30859375 C-38.33841852 172.46034385 -39.13332949 175.61167581 -39.93453979 178.76147461 C-42.10135885 187.28436882 -44.14985831 195.83226538 -46.17114258 204.390625 C-47.47810336 209.91966426 -48.8544266 215.43023723 -50.25 220.9375 C-53.78568309 235.00023954 -57.20387096 249.08626118 -60.3125 263.25 C-61.81814004 270.10811178 -63.44803601 276.92416587 -65.1875 283.7265625 C-65.97101953 286.79731104 -66.71216793 289.8759364 -67.4375 292.9609375 C-73.52599068 318.60312698 -73.52599068 318.60312698 -80.25 324.9375 C-83.21871717 325.45725481 -85.48350478 325.65492266 -88.4375 325.5625 C-89.19909424 325.54703125 -89.96068848 325.5315625 -90.74536133 325.515625 C-97.98306431 325.19405238 -102.85259887 323.40407898 -107.9765625 318.17578125 C-118.61940903 305.25232475 -118.58998079 287.34357271 -120.57421875 271.453125 C-120.70113098 270.43727325 -120.82804321 269.42142151 -120.95880127 268.37478638 C-122.08147485 259.35388111 -123.17577387 250.32960148 -124.265625 241.3046875 C-124.44587247 239.81258591 -124.6261246 238.32048488 -124.80638123 236.8283844 C-124.89713645 236.07710361 -124.98789167 235.32582281 -125.08139706 234.55177593 C-128.62834648 205.19086744 -132.21870273 175.84000752 -136.12988281 146.52490234 C-136.26686584 145.48883347 -136.40384888 144.45276459 -136.54498291 143.38529968 C-136.79333955 141.50778565 -137.04441678 139.63062776 -137.29925537 137.75398254 C-138.21622684 130.80343336 -138.70966139 123.96190189 -139.25 116.9375 C-126.05 116.9375 -112.85 116.9375 -99.25 116.9375 C-98.59 115.2875 -97.93 113.6375 -97.25 111.9375 C-92.11386337 106.10729085 -87.93240597 103.68499934 -80.279953 103.14021301 C-79.3870607 103.09007553 -78.4941684 103.03993805 -77.57421875 102.98828125 C-76.6490596 102.92593796 -75.72390045 102.86359467 -74.77070618 102.79936218 C-71.8269574 102.60384177 -68.88243353 102.42668159 -65.9375 102.25 C-63.93677012 102.12035154 -61.93611745 101.98950569 -59.93554688 101.85742188 C-55.04115066 101.53690014 -50.14597794 101.23283506 -45.25 100.9375 C-44.26 96.9775 -43.27 93.0175 -42.25 88.9375 C-43.735 88.4425 -43.735 88.4425 -45.25 87.9375 C-44.53502401 85.79257204 -43.81955766 83.64782639 -43.1015625 81.50390625 C-42.56599944 79.88984694 -42.03872035 78.27299141 -41.5234375 76.65234375 C-40.26622138 72.73563201 -38.86520842 69.07563031 -37.0625 65.375 C-35.02877624 61.00057531 -35.08254318 57.71001924 -35.25 52.9375 C-34.26 51.9475 -34.26 51.9475 -33.25 50.9375 C-33.14794286 47.93347021 -33.31980516 44.98156948 -33.47265625 41.98046875 C-33.21639562 38.47824014 -32.06522554 36.88367757 -30.25 33.9375 C-30.03650984 31.46982833 -30.03650984 31.46982833 -30.3125 29 C-30.48901624 23.99870647 -29.04716187 22.09086156 -26.25 17.9375 C-25.86132068 15.26196826 -25.86132068 15.26196826 -25.75 12.375 C-25.52731783 8.88315409 -25.32816943 7.08758531 -23.6875 3.9375 C-16.90677555 -1.62617134 -8.27357254 -2.70482179 0 0 Z " fill="#882328" transform="translate(583.25,102.0625)"/>
<path d="M0 0 C6.81424086 4.80094243 9.11742901 9.36963199 10.96875 17.4140625 C12.04521915 20.89105787 13.97640215 22.6617274 16.75 24.9375 C19.59608749 29.20663124 18.50324156 33.08270287 17.93945312 37.95703125 C17.50307436 42.69107962 18.01413201 45.0836758 20.75 48.9375 C20.9375 51.75 20.9375 51.75 20.75 53.9375 C21.636875 54.081875 22.52375 54.22625 23.4375 54.375 C28.2069507 56.62474089 29.72311929 60.20541993 31.75 64.9375 C32.6425945 67.95654597 32.93233433 70.78076154 33.06640625 73.921875 C33.12924805 75.32373047 33.12924805 75.32373047 33.19335938 76.75390625 C33.23267578 77.72199219 33.27199219 78.69007813 33.3125 79.6875 C33.35568359 80.67105469 33.39886719 81.65460938 33.44335938 82.66796875 C33.54922052 85.09101275 33.65130171 87.5141554 33.75 89.9375 C32.1 89.9375 30.45 89.9375 28.75 89.9375 C28.57984375 90.72253906 28.4096875 91.50757813 28.234375 92.31640625 C26.012462 101.94863547 26.012462 101.94863547 23.5625 105.75 C21.11681618 110.05103016 21.15085537 113.39637545 22.28735352 118.21655273 C23.02116575 120.74435414 23.80917017 123.24748943 24.625 125.75 C30.13329277 142.89423179 30.49752488 157.70010155 27.75 175.5625 C25.53530179 190.75758117 25.30099379 205.58666859 25.75 220.9375 C25.09 220.9375 24.43 220.9375 23.75 220.9375 C23.688125 221.68 23.62625 222.4225 23.5625 223.1875 C22.4750532 226.86808917 20.88134217 227.7656936 17.75 229.9375 C15.61243698 230.82374209 13.44242048 231.63480196 11.25 232.375 C6.26806285 234.20750106 3.18184891 235.77768314 -0.25 239.9375 C-5.47256403 244.73175852 -9.11284564 247.22318602 -16.3125 247.1875 C-17.35535156 247.19265625 -18.39820313 247.1978125 -19.47265625 247.203125 C-22.25 246.9375 -22.25 246.9375 -25.25 244.9375 C-26.88628178 239.28489022 -26.85406099 232.76587223 -26.25 226.9375 C-24.15784488 223.25819272 -23.23851981 222.2670066 -19.25 220.9375 C-17.4800313 220.83747037 -15.70896509 220.75610446 -13.9375 220.6875 C-9.87843602 220.29710254 -6.59882222 219.92371111 -3.53125 216.9453125 C-0.4518702 212.11969903 1.08792927 206.37232419 2.75 200.9375 C2.36328125 201.90171875 1.9765625 202.8659375 1.578125 203.859375 C1.0526072 205.1356325 0.52653619 206.41166231 0 207.6875 C-0.37898438 208.63882813 -0.37898438 208.63882813 -0.765625 209.609375 C-2.37840409 213.48004482 -3.82130172 216.45921282 -7.25 218.9375 C-10.4921875 219.625 -10.4921875 219.625 -14.125 219.9375 C-19.82597207 220.43002458 -22.78961186 221.55469798 -27.25 224.9375 C-30.71606749 191.76041934 -30.71606749 191.76041934 -31.25 177.9375 C-31.33765625 176.63296875 -31.4253125 175.3284375 -31.515625 173.984375 C-31.92916029 164.84900459 -31.92916029 164.84900459 -28.875 160.75 C-26.14666103 159.06504006 -23.26850056 158.32896876 -20.1875 157.5 C-16.21425548 156.41584632 -13.75589159 155.30148862 -11.2578125 151.81640625 C-9.62800097 148.77788166 -8.49871934 145.5801818 -7.4375 142.3046875 C-5.35731398 138.1580009 -2.42175622 136.35986019 1.87109375 134.8125 C3.51271484 134.379375 3.51271484 134.379375 5.1875 133.9375 C10.09634328 132.51988388 13.87052822 131.27815625 17.75 127.9375 C18.08 126.9475 18.41 125.9575 18.75 124.9375 C18.275625 125.700625 17.80125 126.46375 17.3125 127.25 C13.39092335 131.36287307 8.719325 132.1530592 3.33984375 133.57421875 C-1.9640118 135.10605015 -5.48240555 136.95168378 -8.25 141.9375 C-8.94444387 143.63473155 -9.60971436 145.34410496 -10.25 147.0625 C-11.88313658 151.35109094 -13.0817496 153.67214652 -17.25 155.9375 C-19.76674229 156.76413731 -22.2764528 157.49105763 -24.84765625 158.12890625 C-27.44695268 159.00379139 -29.15490845 160.19078395 -31.25 161.9375 C-31.58764274 151.63939651 -29.45584678 142.37797079 -26.75 132.5 C-26.53641846 131.71826416 -26.32283691 130.93652832 -26.1027832 130.13110352 C-24.46529059 124.31444222 -24.46529059 124.31444222 -23.10546875 121.93359375 C-21.66668164 118.57642382 -22.00459467 115.02763067 -22.0625 111.4375 C-22.06314453 110.67824219 -22.06378906 109.91898437 -22.06445312 109.13671875 C-22.09252201 105.57508859 -22.29282161 102.36329159 -23.25 98.9375 C-24.24 98.9375 -25.23 98.9375 -26.25 98.9375 C-26.36472656 99.62457031 -26.47945312 100.31164062 -26.59765625 101.01953125 C-27.34569266 104.36553842 -28.45785555 107.42500538 -29.6875 110.625 C-30.11933594 111.76324219 -30.55117188 112.90148437 -30.99609375 114.07421875 C-32.25 116.9375 -32.25 116.9375 -34.25 118.9375 C-36.13591957 119.16797829 -36.13591957 119.16797829 -38.47671509 119.14004517 C-39.36295059 119.13438034 -40.2491861 119.12871552 -41.16227722 119.12287903 C-42.13691422 119.10633774 -43.11155121 119.08979645 -44.11572266 119.07275391 C-45.14013962 119.06329239 -46.16455658 119.05383087 -47.22001648 119.04408264 C-50.61820964 119.01030825 -54.01604517 118.96221925 -57.4140625 118.9140625 C-59.76532039 118.88790537 -62.11658833 118.86263757 -64.46786499 118.83822632 C-70.66581913 118.77147756 -76.86356278 118.69260589 -83.06134033 118.61126709 C-89.381957 118.53044234 -95.70269741 118.46100295 -102.0234375 118.390625 C-114.43244003 118.25076945 -126.84125003 118.09811533 -139.25 117.9375 C-139.25 117.6075 -139.25 117.2775 -139.25 116.9375 C-126.05 116.9375 -112.85 116.9375 -99.25 116.9375 C-98.59 115.2875 -97.93 113.6375 -97.25 111.9375 C-92.11386337 106.10729085 -87.93240597 103.68499934 -80.279953 103.14021301 C-79.3870607 103.09007553 -78.4941684 103.03993805 -77.57421875 102.98828125 C-76.6490596 102.92593796 -75.72390045 102.86359467 -74.77070618 102.79936218 C-71.8269574 102.60384177 -68.88243353 102.42668159 -65.9375 102.25 C-63.93677012 102.12035154 -61.93611745 101.98950569 -59.93554688 101.85742188 C-55.04115066 101.53690014 -50.14597794 101.23283506 -45.25 100.9375 C-44.26 96.9775 -43.27 93.0175 -42.25 88.9375 C-43.735 88.4425 -43.735 88.4425 -45.25 87.9375 C-44.53502401 85.79257204 -43.81955766 83.64782639 -43.1015625 81.50390625 C-42.56599944 79.88984694 -42.03872035 78.27299141 -41.5234375 76.65234375 C-40.26622138 72.73563201 -38.86520842 69.07563031 -37.0625 65.375 C-35.02877624 61.00057531 -35.08254318 57.71001924 -35.25 52.9375 C-34.26 51.9475 -34.26 51.9475 -33.25 50.9375 C-33.14794286 47.93347021 -33.31980516 44.98156948 -33.47265625 41.98046875 C-33.21639562 38.47824014 -32.06522554 36.88367757 -30.25 33.9375 C-30.03650984 31.46982833 -30.03650984 31.46982833 -30.3125 29 C-30.48901624 23.99870647 -29.04716187 22.09086156 -26.25 17.9375 C-25.86132068 15.26196826 -25.86132068 15.26196826 -25.75 12.375 C-25.52731783 8.88315409 -25.32816943 7.08758531 -23.6875 3.9375 C-16.90677555 -1.62617134 -8.27357254 -2.70482179 0 0 Z " fill="#F9505B" transform="translate(583.25,102.0625)"/>
<path d="M0 0 C0.99 0 1.98 0 3 0 C5.47261775 3.78805039 5.38459656 7.68790656 5.375 12.0625 C5.37338867 12.82473877 5.37177734 13.58697754 5.37011719 14.37231445 C5.22885457 20.91678982 3.54398624 25.9979172 1 32 C-2.50348012 42.05877219 -3.72594153 51.44874893 -4 62 C-3.62746094 61.54238281 -3.25492188 61.08476562 -2.87109375 60.61328125 C-0.42642051 58.50545234 1.83287739 58.02793554 4.9375 57.1875 C9.75912035 55.64984106 9.75912035 55.64984106 13.5 52.3125 C14.32799884 50.48400257 15.14278477 48.64862532 15.8984375 46.7890625 C18.00344089 41.72021434 19.86897281 37.54171477 25 35 C28.53290028 33.92476948 32.0578873 33.00104174 35.66015625 32.1875 C39.56897142 30.79769905 41.38148444 29.18506711 44 26 C44.97510428 24.06452223 44.97510428 24.06452223 45.3125 22.1875 C45.539375 21.135625 45.76625 20.08375 46 19 C46.33 19 46.66 19 47 19 C47.35399338 22.71693054 47.12439143 24.75121713 45.4375 28.125 C41.09614579 33.24557163 36.7119825 34.90229563 30.375 36.4375 C25.56948534 37.68653938 22.94555479 38.8048159 20 43 C19.30013065 44.65299882 18.63602228 46.32140002 18 48 C16.31393725 52.43908709 14.98458737 55.17758394 11 58 C7.94169834 59.14375509 4.88493538 60.12220025 1.7421875 61.0078125 C-1.13208791 62.04779249 -2.20177267 62.58268406 -4 65 C-5.31204017 75.1391704 -3.59650709 86.17298072 -2.77319336 96.33422852 C-2.56088886 98.95740686 -2.35696378 101.5811392 -2.15429688 104.20507812 C-2.02131561 105.89587133 -1.88786891 107.58662801 -1.75390625 109.27734375 C-1.6934462 110.05037338 -1.63298615 110.82340302 -1.57069397 111.61985779 C-1.20409376 116.11227206 -0.68289756 120.54441552 0 125 C0.67933594 124.35933594 1.35867188 123.71867187 2.05859375 123.05859375 C6.4011879 120.01935455 10.54628381 120.17738938 15.72265625 119.78515625 C19.10412814 119.26662436 19.10412814 119.26662436 21.26953125 116.82421875 C23.08222254 113.86580836 24.3881386 110.9897789 25.625 107.75 C27.78582202 102.10708899 27.78582202 102.10708899 30 101 C25.67659855 116.51518536 25.67659855 116.51518536 19.94140625 121.04296875 C16.63899609 122.67091742 13.19515887 122.58892101 9.56640625 122.76171875 C6.39996924 123.05571062 4.43806893 123.96827589 2 126 C-0.62392748 131.24785496 0.50650308 140.47406139 2 146 C6.2214932 148.1107466 11.41631693 147.50610302 16 147 C20.53641285 145.28311944 23.3555212 142.85930507 26.25 139 C29.75832486 134.34218986 35.73054536 132.97069035 41 131 C45.22157094 129.2965591 46.55604337 128.75472627 48.875 124.8125 C49.24625 123.884375 49.6175 122.95625 50 122 C50.66 122 51.32 122 52 122 C51.75443359 120.62134766 51.75443359 120.62134766 51.50390625 119.21484375 C50.76062905 114.01190332 50.89314293 108.80687095 50.9375 103.5625 C50.94201172 102.54478516 50.94652344 101.52707031 50.95117188 100.47851562 C50.96287563 97.98561491 50.97927152 95.49283926 51 93 C51.33 93 51.66 93 52 93 C52.06731323 94.88489136 52.06731323 94.88489136 52.13598633 96.80786133 C52.3061104 101.46571686 52.4950436 106.12265138 52.68969727 110.77954102 C52.77134011 112.79594082 52.8478665 114.8125545 52.91918945 116.8293457 C53.02254226 119.7267883 53.14421821 122.62296572 53.26953125 125.51953125 C53.29779495 126.42274612 53.32605865 127.325961 53.35517883 128.25654602 C53.39499374 129.09719101 53.43480865 129.937836 53.47583008 130.80395508 C53.50469803 131.54341873 53.53356598 132.28288239 53.56330872 133.04475403 C54.10923633 135.48909585 55.18438633 136.33633767 57 138 C57.45086345 140.75885494 57.18192449 143.18017041 57 146 C56.67 146.33 56.34 146.66 56 147 C55.76807135 148.51469448 55.58784762 150.03754562 55.4375 151.5625 C55.31181641 152.80193359 55.31181641 152.80193359 55.18359375 154.06640625 C55.12300781 154.70449219 55.06242188 155.34257812 55 156 C56.051875 156.07347656 56.051875 156.07347656 57.125 156.1484375 C62.96734159 156.60883942 68.36093962 157.40403951 74 159 C73.67 161.31 73.34 163.62 73 166 C66.73 165.67 60.46 165.34 54 165 C51.41811763 172.74564711 54.07240492 179.04369587 56.6875 186.4375 C57.42302167 188.57642895 58.15739381 190.71575353 58.890625 192.85546875 C59.25091797 193.89880371 59.61121094 194.94213867 59.98242188 196.01708984 C61.3666559 200.07480849 62.66839545 204.15502914 63.9375 208.25 C64.50791016 210.08304687 64.50791016 210.08304687 65.08984375 211.953125 C65.78929956 214.29465089 66.44084305 216.6221115 67 219 C66.01 219.4125 65.02 219.825 64 220.25 C59.9101495 221.99801381 55.96354518 223.98345947 52 226 C52 226.66 52 227.32 52 228 C49.85620953 230.3577329 48.11098966 231.82951565 44.89990234 232.32226562 C42.48425231 232.39326941 40.10206164 232.34909803 37.6875 232.25 C36.85154297 232.23195313 36.01558594 232.21390625 35.15429688 232.1953125 C33.10236772 232.14841126 31.05103244 232.07667411 29 232 C28.1824494 228.38944923 27.84628302 224.99707973 27.76635742 221.29858398 C27.72577461 219.6154435 27.72577461 219.6154435 27.68437195 217.89830017 C27.65833389 216.69307205 27.63229584 215.48784393 27.60546875 214.24609375 C27.53665214 211.67380538 27.46696269 209.10154025 27.39648438 206.52929688 C27.28835991 202.49000463 27.18615983 198.45074216 27.10131836 194.41088867 C27.01528757 190.50116054 26.90590569 186.59262565 26.79296875 182.68359375 C26.77300339 181.49253525 26.75303802 180.30147675 26.73246765 179.07432556 C26.50699077 172.0086059 25.39570526 166.14144914 22.84712219 159.53456116 C22 157 22 157 22 153 C25.3021228 151.8992924 27.94083279 151.79372928 31.41796875 151.68359375 C33.29838867 151.62075195 33.29838867 151.62075195 35.21679688 151.55664062 C36.52712891 151.51732422 37.83746094 151.47800781 39.1875 151.4375 C40.52279978 151.39429008 41.85808652 151.350675 43.19335938 151.30664062 C46.46213297 151.20043498 49.73098333 151.09839003 53 151 C52.76228882 150.15743652 52.76228882 150.15743652 52.51977539 149.29785156 C51.97811638 146.90325571 51.79358526 144.68561447 51.68359375 142.234375 C51.64169922 141.34492188 51.59980469 140.45546875 51.55664062 139.5390625 C51.51732422 138.61867188 51.47800781 137.69828125 51.4375 136.75 C51.39431641 135.81414062 51.35113281 134.87828125 51.30664062 133.9140625 C51.2008195 131.60951359 51.09873443 129.30486161 51 127 C50.16339844 127.76699219 49.32679688 128.53398437 48.46484375 129.32421875 C45.14929495 132.08928335 41.62036886 133.45560363 37.5625 134.8125 C31.75493817 136.92114362 28.25211291 139.22404076 24.5234375 144.1640625 C21.2983858 148.05066327 17.30371196 149.76658425 12.33984375 150.26953125 C5.74773361 150.37386681 5.74773361 150.37386681 3 149 C2.67 149.66 2.34 150.32 2 151 C3.32 151 4.64 151 6 151 C10.58611818 205.03046093 10.58611818 205.03046093 11 229 C2.91600652 232.38100451 -4.70342205 232.39036743 -13.31640625 232.29296875 C-14.78327497 232.28736283 -16.25014937 232.28309745 -17.71702576 232.28010559 C-21.54920376 232.26873501 -25.38103233 232.23933665 -29.21307373 232.20599365 C-33.13483963 232.17512323 -37.05666284 232.16156425 -40.97851562 232.14648438 C-48.65250183 232.114458 -56.32620167 232.06335808 -64 232 C-61 230 -61 230 -58.1875 228.4375 C-47.1016673 220.95525063 -44.53078023 204.90418167 -41.93548584 192.83630371 C-41.19364658 189.3888046 -40.42651325 185.94689355 -39.6640625 182.50390625 C-39.44388962 181.50446487 -39.44388962 181.50446487 -39.2192688 180.48483276 C-37.3134743 171.84771516 -35.15204651 163.2844835 -32.859375 154.7421875 C-30.09386736 144.41200741 -27.60069838 134.04408921 -25.23095703 123.61572266 C-23.76665906 117.2097708 -22.21536834 110.8431308 -20.5 104.5 C-18.25008742 96.16145289 -16.28669814 87.7691709 -14.38427734 79.3449707 C-13.01930922 73.32462737 -11.5908262 67.32881822 -10.0625 61.34765625 C-9.74007324 60.07003418 -9.41764648 58.79241211 -9.08544922 57.47607422 C-8.46414443 55.02528427 -7.83112435 52.57742173 -7.18408203 50.13330078 C-5.01658417 41.51599582 -2.36997926 30.87750134 -7 22.6875 C-7.66 21.800625 -8.32 20.91375 -9 20 C-8.57074219 19.51015625 -8.14148438 19.0203125 -7.69921875 18.515625 C-5.41526358 15.13432125 -4.18128816 11.57584741 -2.8125 7.75 C-2.40354492 6.63238281 -2.40354492 6.63238281 -1.98632812 5.4921875 C-1.31820644 3.66364395 -0.65828109 1.8321092 0 0 Z " fill="#F7F7F8" transform="translate(557,201)"/>
<path d="M0 0 C0.96631969 3.12258525 1.92151999 6.24847254 2.875 9.375 C3.14441406 10.24511719 3.41382813 11.11523438 3.69140625 12.01171875 C8.64538937 28.32361439 8.59216269 42.77265299 6 59.625 C3.78530179 74.82008117 3.55099379 89.64916859 4 105 C3.34 105 2.68 105 2 105 C1.938125 105.7425 1.87625 106.485 1.8125 107.25 C0.7250532 110.93058917 -0.86865783 111.8281936 -4 114 C-6.13756302 114.88624209 -8.30757952 115.69730196 -10.5 116.4375 C-15.48193715 118.27000106 -18.56815109 119.84018314 -22 124 C-27.22256403 128.79425852 -30.86284564 131.28568602 -38.0625 131.25 C-39.10535156 131.25515625 -40.14820313 131.2603125 -41.22265625 131.265625 C-44 131 -44 131 -47 129 C-48.63628178 123.34739022 -48.60406099 116.82837223 -48 111 C-45.90784488 107.32069272 -44.98851981 106.3295066 -41 105 C-39.2300313 104.89997037 -37.45896509 104.81860446 -35.6875 104.75 C-31.62843602 104.35960254 -28.34882222 103.98621111 -25.28125 101.0078125 C-22.2018702 96.18219903 -20.66207073 90.43482419 -19 85 C-19.38671875 85.96421875 -19.7734375 86.9284375 -20.171875 87.921875 C-20.6973928 89.1981325 -21.22346381 90.47416231 -21.75 91.75 C-22.00265625 92.38421875 -22.2553125 93.0184375 -22.515625 93.671875 C-24.12840409 97.54254482 -25.57130172 100.52171282 -29 103 C-32.2421875 103.6875 -32.2421875 103.6875 -35.875 104 C-41.57597207 104.49252458 -44.53961186 105.61719798 -49 109 C-52.46606749 75.82291934 -52.46606749 75.82291934 -53 62 C-53.08765625 60.69546875 -53.1753125 59.3909375 -53.265625 58.046875 C-53.67916029 48.91150459 -53.67916029 48.91150459 -50.625 44.8125 C-47.89666103 43.12754006 -45.01850056 42.39146876 -41.9375 41.5625 C-37.96425548 40.47834632 -35.50589159 39.36398862 -33.0078125 35.87890625 C-31.37800097 32.84038166 -30.24871934 29.6426818 -29.1875 26.3671875 C-27.10731398 22.2205009 -24.17175622 20.42236019 -19.87890625 18.875 C-18.78449219 18.58625 -17.69007813 18.2975 -16.5625 18 C-11.65365672 16.58238388 -7.87947178 15.34065625 -4 12 C-3.67 11.01 -3.34 10.02 -3 9 C-3.474375 9.763125 -3.94875 10.52625 -4.4375 11.3125 C-8.35907665 15.42537307 -13.030675 16.2155592 -18.41015625 17.63671875 C-23.7140118 19.16855015 -27.23240555 21.01418378 -30 26 C-30.69444387 27.69723155 -31.35971436 29.40660496 -32 31.125 C-33.63313658 35.41359094 -34.8317496 37.73464652 -39 40 C-41.51674229 40.82663731 -44.0264528 41.55355763 -46.59765625 42.19140625 C-49.19695268 43.06629139 -50.90490845 44.25328395 -53 46 C-53.33585275 35.75649119 -51.23080193 26.52033681 -48.5625 16.6875 C-48.35729736 15.92252197 -48.15209473 15.15754395 -47.94067383 14.36938477 C-47.34184458 12.22769784 -46.68720501 10.11479469 -46 8 C-45.63261719 6.85917969 -45.26523437 5.71835938 -44.88671875 4.54296875 C-43 2 -43 2 -39.140625 0.9765625 C-37.51302522 0.82746165 -35.88206926 0.71253313 -34.25 0.625 C-33.38342773 0.55812988 -32.51685547 0.49125977 -31.62402344 0.42236328 C-21.10186125 -0.29718067 -10.53916837 -0.1864578 0 0 Z " fill="#1F2F36" transform="translate(605,218)"/>
<path d="M0 0 C0.99 0 1.98 0 3 0 C3 14.52 3 29.04 3 44 C5.64 44 8.28 44 11 44 C27.26325794 46.95862659 39.5327232 55.84553708 49.2578125 69.0703125 C53.75149285 76.02441098 61 87.30625416 61 96 C21.73 96 -17.54 96 -58 96 C-53.29975101 80.33250336 -44.85134446 63.69878534 -31 54 C-30.15566406 53.40574219 -29.31132812 52.81148437 -28.44140625 52.19921875 C-18.49076959 45.53325827 -12.47408129 44 0 44 C0 29.48 0 14.96 0 0 Z " fill="#FD505B" transform="translate(389,0)"/>
<path d="M0 0 C0.99 0.66 1.98 1.32 3 2 C5.67197035 2.42114198 5.67197035 2.42114198 8.5625 2.5625 C13.80763359 2.90381679 13.80763359 2.90381679 16 4 C16.28875 5.11375 16.5775 6.2275 16.875 7.375 C18.04091036 11.13182228 18.67343387 12.11494586 22 14 C21 19 21 19 20.4375 21.4375 C19.90883942 24.10067735 19.90883942 24.10067735 20 27.25 C20 28.1575 20 29.065 20 30 C19.67 30.33 19.34 30.66 19 31 C19.44793109 35.65065613 19.44793109 35.65065613 21 40 C21.13284368 43.32478199 21.24788367 46.64322688 21.25390625 49.97070312 C21.3912299 53.87719954 21.87924912 55.83913882 24.24609375 58.9921875 C27.17680412 61.128904 28.27230421 61.57669372 31.8125 61.3125 C32.60269531 61.26738281 33.39289062 61.22226563 34.20703125 61.17578125 C34.79871094 61.11777344 35.39039063 61.05976563 36 61 C36.33 58.36 36.66 55.72 37 53 C37.66 53 38.32 53 39 53 C39.66 51.02 40.32 49.04 41 47 C44.35613126 47.54634695 46.41783192 48.212995 48.4765625 50.99609375 C51.49710953 56.37478715 53.05286694 60.81002555 53.31640625 66.984375 C53.35830078 67.91894531 53.40019531 68.85351562 53.44335938 69.81640625 C53.48267578 70.78449219 53.52199219 71.75257813 53.5625 72.75 C53.60568359 73.73355469 53.64886719 74.71710938 53.69335938 75.73046875 C53.79922052 78.15351275 53.90130171 80.5766554 54 83 C52.35 83 50.7 83 49 83 C48.82984375 83.78503906 48.6596875 84.57007813 48.484375 85.37890625 C46.26161014 95.01482839 46.26161014 95.01482839 43.875 98.8125 C41.80275262 102.33532054 41.46590694 104.98274115 41 109 C38.5622037 109.05397335 36.12560315 109.09365616 33.6875 109.125 C32.99720703 109.14175781 32.30691406 109.15851563 31.59570312 109.17578125 C27.82864604 109.21217794 26.21568296 109.14378864 23 107 C23 106.34 23 105.68 23 105 C22.39027344 104.73960937 21.78054688 104.47921875 21.15234375 104.2109375 C14.5595518 100.50174421 11.13737225 89.82140079 9 83 C8.86328125 79.6328125 8.86328125 79.6328125 9 77 C8.34 77 7.68 77 7 77 C7 75.02 7 73.04 7 71 C6.34 71 5.68 71 5 71 C5 68.36 5 65.72 5 63 C4.34 63 3.68 63 3 63 C3 60.36 3 57.72 3 55 C2.34 55 1.68 55 1 55 C1 53.02 1 51.04 1 49 C0.34 49 -0.32 49 -1 49 C-1 47.68 -1 46.36 -1 45 C-2.32 44.67 -3.64 44.34 -5 44 C-4.01 44 -3.02 44 -2 44 C-1.67 42.68 -1.34 41.36 -1 40 C-0.67 40.33 -0.34 40.66 0 41 C0.495 38.03 0.495 38.03 1 35 C1.66 35.33 2.32 35.66 3 36 C3.33 36.99 3.66 37.98 4 39 C4.33 37.68 4.66 36.36 5 35 C4.401875 34.773125 3.80375 34.54625 3.1875 34.3125 C0.27703356 32.56622014 -0.54454331 31.07537176 -2 28 C-2.26262412 25.21844351 -2.37594128 22.70607725 -2.3125 19.9375 C-2.31572266 19.23044922 -2.31894531 18.52339844 -2.32226562 17.79492188 C-2.28259499 13.95408345 -1.86066397 11.33154458 0 8 C0.23920955 5.86712627 0.23920955 5.86712627 0.125 3.75 C0.08375 2.5125 0.0425 1.275 0 0 Z " fill="#C58773" transform="translate(563,109)"/>
<path d="M0 0 C0.33 0 0.66 0 1 0 C1.33 8.91 1.66 17.82 2 27 C-2.71382403 27.589228 -7.11754167 28.12967495 -11.8125 28.31640625 C-12.82441406 28.35830078 -13.83632813 28.40019531 -14.87890625 28.44335938 C-15.90886719 28.48267578 -16.93882812 28.52199219 -18 28.5625 C-19.06089844 28.60568359 -20.12179687 28.64886719 -21.21484375 28.69335938 C-23.80979151 28.79855996 -26.40482084 28.90070119 -29 29 C-28.65428955 29.77794922 -28.3085791 30.55589844 -27.95239258 31.35742188 C-22.57957367 45.51647004 -22.99516993 60.36617807 -22.72955322 75.30303955 C-22.65882565 78.99801625 -22.56157288 82.69229455 -22.46679688 86.38671875 C-22.28577472 93.5907239 -22.13337894 100.79493811 -22 108 C-19.10012502 107.99397741 -16.2108868 107.94650993 -13.3125 107.875 C-12.49587891 107.87757813 -11.67925781 107.88015625 -10.83789062 107.8828125 C-6.27009563 107.80030379 -6.27009563 107.80030379 -2.39013672 105.66426086 C-1.17656277 104.17379111 -0.0813254 102.58902397 1 101 C3.5 99.35546875 3.5 99.35546875 6 98.1875 C6.825 97.78917969 7.65 97.39085937 8.5 96.98046875 C10.99767708 96.00091102 13.35815022 95.43873577 16 95 C18 98 18 98 18 101 C14.98350694 102.46743436 11.96108949 103.92225103 8.9375 105.375 C8.08994141 105.7875 7.24238281 106.2 6.36914062 106.625 C1.63018991 108.89384127 -2.89645626 110.73969476 -8 112 C-8 111.34 -8 110.68 -8 110 C-8.95173096 110.00523682 -9.90346191 110.01047363 -10.8840332 110.01586914 C-36.32363439 110.14117275 -61.75159563 109.89805236 -87.1875 109.5 C-87.95186497 109.48804218 -88.71622993 109.47608437 -89.50375748 109.46376419 C-99.00259684 109.31465798 -108.50133717 109.15996882 -118 109 C-118 108.34 -118 107.68 -118 107 C-117.15554825 107.00444122 -116.3110965 107.00888245 -115.4410553 107.01345825 C-107.45300515 107.05366008 -99.46498936 107.08404774 -91.476861 107.10362434 C-87.37084167 107.11402745 -83.26490647 107.12812263 -79.15893555 107.15087891 C-75.19076659 107.1727319 -71.22267818 107.1845947 -67.25445366 107.18975449 C-65.74631929 107.19342801 -64.23818894 107.20060103 -62.73008919 107.21146011 C-54.90494802 107.26552497 -47.58245602 107.1389261 -40 105 C-40.09396057 103.79969147 -40.09396057 103.79969147 -40.18981934 102.57513428 C-40.78309131 94.98569241 -41.3718663 87.3959207 -41.95575714 79.8057518 C-42.25600071 75.90481289 -42.55790221 72.00401794 -42.86376953 68.10351562 C-43.15960182 64.33016256 -43.4508481 60.55647957 -43.73908997 56.78253937 C-43.84911709 55.35213153 -43.96071866 53.92184378 -44.07402039 52.49169159 C-44.74694067 43.98249696 -45.15815581 35.5396605 -45 27 C-46.32 27 -47.64 27 -49 27 C-48.505 25.515 -48.505 25.515 -48 24 C-47.34 24.33 -46.68 24.66 -46 25 C-39.24124479 25.76632726 -33.50546603 25.19968242 -28 21 C-26.99252502 19.75148934 -26.01502521 18.47842232 -25.0625 17.1875 C-21.07663216 12.18416238 -15.79316271 10.48506517 -9.95336914 8.34643555 C-9.23141357 8.0812915 -8.50945801 7.81614746 -7.765625 7.54296875 C-7.11368164 7.31633545 -6.46173828 7.08970215 -5.79003906 6.85620117 C-3.69514581 5.8541839 -2.48468411 4.77992758 -1 3 C-0.67 2.01 -0.34 1.02 0 0 Z " fill="#C68876" transform="translate(608,325)"/>
<path d="M0 0 C0 0.33 0 0.66 0 1 C-2.31 1 -4.62 1 -7 1 C-6.39072585 2.92936813 -5.7814423 4.85873329 -5.17211914 6.78808594 C-4.63208768 8.49832341 -4.09221624 10.20861142 -3.55249023 11.91894531 C-2.20919126 16.17498816 -0.86413011 20.43043689 0.48828125 24.68359375 C3.61237899 34.52082002 6.65637193 44.38004796 9.64038086 54.26074219 C11.03254359 58.86289308 12.44503119 63.44942952 14 68 C13.01 68.4125 12.02 68.825 11 69.25 C6.9101495 70.99801381 2.96354518 72.98345947 -1 75 C-1 75.66 -1 76.32 -1 77 C-3.14379047 79.3577329 -4.88901034 80.82951565 -8.10009766 81.32226562 C-10.51574769 81.39326941 -12.89793836 81.34909803 -15.3125 81.25 C-16.14845703 81.23195313 -16.98441406 81.21390625 -17.84570312 81.1953125 C-19.89763228 81.14841126 -21.94896756 81.07667411 -24 81 C-24.8175506 77.38944923 -25.15371698 73.99707973 -25.23364258 70.29858398 C-25.26069778 69.17649033 -25.28775299 68.05439667 -25.31562805 66.89830017 C-25.34166611 65.69307205 -25.36770416 64.48784393 -25.39453125 63.24609375 C-25.46334786 60.67380538 -25.53303731 58.10154025 -25.60351562 55.52929688 C-25.71164009 51.49000463 -25.81384017 47.45074216 -25.89868164 43.41088867 C-25.98471243 39.50116054 -26.09409431 35.59262565 -26.20703125 31.68359375 C-26.22699661 30.49253525 -26.24696198 29.30147675 -26.26753235 28.07432556 C-26.49300923 21.0086059 -27.60429474 15.14144914 -30.15287781 8.53456116 C-31 6 -31 6 -31 2 C-28.29144331 1.09714777 -26.42066368 0.81702726 -23.61328125 0.68359375 C-22.75669922 0.64169922 -21.90011719 0.59980469 -21.01757812 0.55664062 C-19.67856445 0.49766602 -19.67856445 0.49766602 -18.3125 0.4375 C-17.43916016 0.39431641 -16.56582031 0.35113281 -15.66601562 0.30664062 C-10.43780806 0.06065326 -5.23375561 -0.04264993 0 0 Z " fill="#C78976" transform="translate(610,352)"/>
<path d="M0 0 C3.95122169 1.86394589 6.80281127 4.02080141 10 7 C10 7.99 10 8.98 10 10 C9.34 10 8.68 10 8 10 C8 10.66 8 11.32 8 12 C7.34 12 6.68 12 6 12 C5.74605469 12.58265625 5.49210937 13.1653125 5.23046875 13.765625 C3.86679667 16.24188033 2.35774797 17.80520626 0.3125 19.75 C-5.23231032 25.15392584 -10.1864976 30.94126546 -15 37 C-13.21079529 38.6485816 -11.4187995 40.29393121 -9.625 41.9375 C-9.11710937 42.40607422 -8.60921875 42.87464844 -8.0859375 43.35742188 C-5.25734146 45.97726768 -5.25734146 45.97726768 -2 48 C-2 48.66 -2 49.32 -2 50 C-1.34 50 -0.68 50 0 50 C0 50.66 0 51.32 0 52 C0.66 52 1.32 52 2 52 C2 52.66 2 53.32 2 54 C2.66 54 3.32 54 4 54 C4 54.66 4 55.32 4 56 C5.11375 56.37125 5.11375 56.37125 6.25 56.75 C9.20124062 58.09147301 10.84814974 59.60905526 13 62 C11.34908222 66.29238623 8.26245434 68.8793915 5 72 C2.06120516 70.64763423 -0.29232911 69.10057341 -2.75 67 C-3.36359375 66.484375 -3.9771875 65.96875 -4.609375 65.4375 C-6 64 -6 64 -6 62 C-6.61875 61.7525 -7.2375 61.505 -7.875 61.25 C-10.35068687 59.79371361 -10.95125002 58.62187494 -12 56 C-12.99 56 -13.98 56 -15 56 C-15 55.34 -15 54.68 -15 54 C-15.5775 53.7525 -16.155 53.505 -16.75 53.25 C-19 52 -19 52 -21 49.8125 C-21.66 49.214375 -22.32 48.61625 -23 48 C-26.37779914 48.3439714 -28.01418883 49.65448423 -30.3125 52.0625 C-30.91449219 52.6915625 -31.51648438 53.320625 -32.13671875 53.96875 C-36.1709126 58.36661332 -40.07771266 62.84520639 -43.8125 67.5 C-44.534375 68.325 -45.25625 69.15 -46 70 C-46.66 70 -47.32 70 -48 70 C-48.66 71.32 -49.32 72.64 -50 74 C-54.41743795 72.61166236 -57.0833938 70.60286648 -60 67 C-59.51437993 62.47424424 -56.40031978 59.87943734 -53.375 56.75 C-52.28029402 55.59595816 -51.18654095 54.44101164 -50.09375 53.28515625 C-49.56265625 52.72586426 -49.0315625 52.16657227 -48.484375 51.59033203 C-45.9862768 48.91391564 -43.64042097 46.11095564 -41.3046875 43.29296875 C-40 42 -40 42 -38 42 C-37.34 40.35 -36.68 38.7 -36 37 C-36.99 36.21625 -37.98 35.4325 -39 34.625 C-39.99 33.75875 -40.98 32.8925 -42 32 C-42 31.34 -42 30.68 -42 30 C-42.66 30 -43.32 30 -44 30 C-44 29.34 -44 28.68 -44 28 C-44.66 28 -45.32 28 -46 28 C-46 27.34 -46 26.68 -46 26 C-46.55558594 25.76152344 -47.11117188 25.52304687 -47.68359375 25.27734375 C-50.53061436 23.70740153 -52.66928174 21.76079551 -55.0625 19.5625 C-55.91972656 18.78003906 -56.77695312 17.99757813 -57.66015625 17.19140625 C-59.47596434 15.49079133 -61.25843926 13.77582096 -63 12 C-61.33248852 8.05860922 -58.77289351 5.2107188 -56 2 C-51.30234629 3.28117829 -48.78197339 5.99527893 -45.55078125 9.44140625 C-44.06489775 11.10030545 -44.06489775 11.10030545 -42 12 C-42 12.66 -42 13.32 -42 14 C-41.34 14 -40.68 14 -40 14 C-40 14.66 -40 15.32 -40 16 C-39.43796875 16.24492187 -38.8759375 16.48984375 -38.296875 16.7421875 C-35.58134146 18.22926539 -33.53608562 20.04062782 -31.25 22.125 C-30.45078125 22.84945313 -29.6515625 23.57390625 -28.828125 24.3203125 C-28.22484375 24.87460937 -27.6215625 25.42890625 -27 26 C-22.10843262 23.74155293 -18.9816821 20.47252315 -16 16 C-15.34 16 -14.68 16 -14 16 C-14 15.34 -14 14.68 -14 14 C-13.34 14 -12.68 14 -12 14 C-11.66355469 13.17242187 -11.66355469 13.17242187 -11.3203125 12.328125 C-9.59614817 9.28788256 -7.37484178 7.18574327 -4.875 4.75 C-3.96492188 3.85796875 -3.05484375 2.9659375 -2.1171875 2.046875 C-1.41851562 1.37140625 -0.71984375 0.6959375 0 0 Z " fill="#FCA7AD" transform="translate(340,296)"/>
<path d="M0 0 C6.81424086 4.80094243 9.11742901 9.36963199 10.96875 17.4140625 C12.04521915 20.89105787 13.97640215 22.6617274 16.75 24.9375 C19.59608749 29.20663124 18.50324156 33.08270287 17.93945312 37.95703125 C17.50006866 42.72368695 18.06736829 45.03549024 20.75 48.9375 C21.46985285 53.16373287 21.1694197 56.30837045 18.75 59.9375 C18.09 59.9375 17.43 59.9375 16.75 59.9375 C16.811875 60.865625 16.87375 61.79375 16.9375 62.75 C16.75 65.9375 16.75 65.9375 15.6875 67.8125 C12.55077867 69.63382206 10.29699627 69.42674087 6.75 68.9375 C3.875 66.5 3.875 66.5 1.75 63.9375 C1.42 63.6075 1.09 63.2775 0.75 62.9375 C0.51244437 59.60040895 0.35425121 56.27061258 0.23242188 52.92773438 C0.04657511 49.09508316 -0.29562846 46.25211412 -2.25 42.9375 C-2.4375 40.25 -2.4375 40.25 -2.25 37.9375 C-1.92 37.6075 -1.59 37.2775 -1.25 36.9375 C-1.25590394 35.5618815 -1.3051429 34.18635629 -1.375 32.8125 C-1.4503397 28.10376885 -0.3773826 25.10362426 1.75 20.9375 C1.13125 20.669375 0.5125 20.40125 -0.125 20.125 C-2.25 18.9375 -2.25 18.9375 -4.25 15.9375 C-4.375 13.25 -4.375 13.25 -4.25 10.9375 C-5.16523437 10.88851562 -6.08046875 10.83953125 -7.0234375 10.7890625 C-8.21195313 10.71429688 -9.40046875 10.63953125 -10.625 10.5625 C-11.80835938 10.49289063 -12.99171875 10.42328125 -14.2109375 10.3515625 C-17.25 9.9375 -17.25 9.9375 -19.25 7.9375 C-19.58 10.2475 -19.91 12.5575 -20.25 14.9375 C-19.26 15.2675 -18.27 15.5975 -17.25 15.9375 C-18.57 15.9375 -19.89 15.9375 -21.25 15.9375 C-21.35845027 18.98013267 -21.43752063 22.01886204 -21.5 25.0625 C-21.53351562 25.9184375 -21.56703125 26.774375 -21.6015625 27.65625 C-21.6902681 33.42211373 -21.05155181 36.53051586 -17.25 40.9375 C-16.59 41.2675 -15.93 41.5975 -15.25 41.9375 C-15.25 44.5775 -15.25 47.2175 -15.25 49.9375 C-16.45628008 47.60535852 -17.4154738 45.44107861 -18.25 42.9375 C-18.58 44.9175 -18.91 46.8975 -19.25 48.9375 C-19.91 48.6075 -20.57 48.2775 -21.25 47.9375 C-21.58 48.9275 -21.91 49.9175 -22.25 50.9375 C-25.46284338 52.82329937 -27.49633583 53.9375 -31.25 53.9375 C-32.24 56.4125 -32.24 56.4125 -33.25 58.9375 C-33.91 58.6075 -34.57 58.2775 -35.25 57.9375 C-35.375 55.5625 -35.375 55.5625 -35.25 52.9375 C-34.59 52.2775 -33.93 51.6175 -33.25 50.9375 C-33.14794286 47.93347021 -33.31980516 44.98156948 -33.47265625 41.98046875 C-33.21639562 38.47824014 -32.06522554 36.88367757 -30.25 33.9375 C-30.03650984 31.46982833 -30.03650984 31.46982833 -30.3125 29 C-30.48901624 23.99870647 -29.04716187 22.09086156 -26.25 17.9375 C-25.86132068 15.26196826 -25.86132068 15.26196826 -25.75 12.375 C-25.52731783 8.88315409 -25.32816943 7.08758531 -23.6875 3.9375 C-16.90677555 -1.62617134 -8.27357254 -2.70482179 0 0 Z " fill="#1F3138" transform="translate(583.25,102.0625)"/>
<path d="M0 0 C2.41698551 1.12431913 4.8335972 2.24942975 7.25 3.375 C8.27287109 3.85066406 8.27287109 3.85066406 9.31640625 4.3359375 C12.56574713 5.85019344 15.80638484 7.37026855 19 9 C18.01 9 17.02 9 16 9 C15.88527344 9.68707031 15.77054688 10.37414062 15.65234375 11.08203125 C14.90430734 14.42803842 13.79214445 17.48750538 12.5625 20.6875 C12.13066406 21.82574219 11.69882812 22.96398437 11.25390625 24.13671875 C10 27 10 27 8 29 C6.11408043 29.23047829 6.11408043 29.23047829 3.77328491 29.20254517 C2.88704941 29.19688034 2.0008139 29.19121552 1.08772278 29.18537903 C0.11308578 29.16883774 -0.86155121 29.15229645 -1.86572266 29.13525391 C-2.89013962 29.12579239 -3.91455658 29.11633087 -4.97001648 29.10658264 C-8.36820964 29.07280825 -11.76604517 29.02471925 -15.1640625 28.9765625 C-17.51532039 28.95040537 -19.86658833 28.92513757 -22.21786499 28.90072632 C-28.41581913 28.83397756 -34.61356278 28.75510589 -40.81134033 28.67376709 C-47.131957 28.59294234 -53.45269741 28.52350295 -59.7734375 28.453125 C-72.18244003 28.31326945 -84.59125003 28.16061533 -97 28 C-97 27.67 -97 27.34 -97 27 C-83.8 27 -70.6 27 -57 27 C-56.34 25.35 -55.68 23.7 -55 22 C-49.86386337 16.16979085 -45.68240597 13.74749934 -38.029953 13.20271301 C-37.1370607 13.15257553 -36.2441684 13.10243805 -35.32421875 13.05078125 C-34.3990596 12.98843796 -33.47390045 12.92609467 -32.52070618 12.86186218 C-29.5769574 12.66634177 -26.63243353 12.48918159 -23.6875 12.3125 C-21.68677012 12.18285154 -19.68611745 12.05200569 -17.68554688 11.91992188 C-12.79115066 11.59940014 -7.89597794 11.29533506 -3 11 C-2.01 7.37 -1.02 3.74 0 0 Z " fill="#C48774" transform="translate(541,192)"/>
<path d="M0 0 C-0.62162162 9.16891892 -0.62162162 9.16891892 -5 13 C-8.67635048 14.62820332 -12.53101696 15.61192182 -16.41015625 16.63671875 C-21.7140118 18.16855015 -25.23240555 20.01418378 -28 25 C-28.69444387 26.69723155 -29.35971436 28.40660496 -30 30.125 C-31.63313658 34.41359094 -32.8317496 36.73464652 -37 39 C-39.51674229 39.82663731 -42.0264528 40.55355763 -44.59765625 41.19140625 C-47.19695268 42.06629139 -48.90490845 43.25328395 -51 45 C-51.33585275 34.75649119 -49.23080193 25.52033681 -46.5625 15.6875 C-46.35729736 14.92252197 -46.15209473 14.15754395 -45.94067383 13.36938477 C-45.73466553 12.63260498 -45.52865723 11.8958252 -45.31640625 11.13671875 C-45.13537354 10.48405029 -44.95434082 9.83138184 -44.76782227 9.15893555 C-43.75412154 6.30864762 -42.38813783 3.6842431 -41 1 C-36.92903862 0.8551177 -32.85799505 0.71282555 -28.78686523 0.57275391 C-27.40695863 0.52493298 -26.02707478 0.47645008 -24.6472168 0.42724609 C-16.42798562 0.13466177 -8.22471701 -0.07794914 0 0 Z " fill="#192B34" transform="translate(603,219)"/>
<path d="M0 0 C3.35613126 0.54634695 5.41783192 1.212995 7.4765625 3.99609375 C10.49710953 9.37478715 12.05286694 13.81002555 12.31640625 19.984375 C12.37356812 21.24846191 12.37356812 21.24846191 12.43188477 22.53808594 C12.47498779 23.59801758 12.51809082 24.65794922 12.5625 25.75 C12.706875 29.1325 12.85125 32.515 13 36 C5.41 36 -2.18 36 -10 36 C-10 37.32 -10 38.64 -10 40 C-10.66 40 -11.32 40 -12 40 C-12 38.68 -12 37.36 -12 36 C-12.66 36 -13.32 36 -14 36 C-14 34.68 -14 33.36 -14 32 C-14.66 32 -15.32 32 -16 32 C-16 30.68 -16 29.36 -16 28 C-16.66 28 -17.32 28 -18 28 C-18 26.02 -18 24.04 -18 22 C-18.66 22 -19.32 22 -20 22 C-20 20.02 -20 18.04 -20 16 C-20.66 16 -21.32 16 -22 16 C-22 14.02 -22 12.04 -22 10 C-22.66 10 -23.32 10 -24 10 C-24 9.34 -24 8.68 -24 8 C-20.34914541 8.31293039 -19.22657355 8.7419579 -16.75 11.5625 C-13.24441123 14.66972641 -11.30147672 14.43320014 -6.79296875 14.17578125 C-6.20128906 14.11777344 -5.60960937 14.05976563 -5 14 C-4.67 11.36 -4.34 8.72 -4 6 C-3.34 6 -2.68 6 -2 6 C-1.34 4.02 -0.68 2.04 0 0 Z " fill="#FA505C" transform="translate(604,156)"/>
<path d="M0 0 C0.99 0.66 1.98 1.32 3 2 C5.67197035 2.42114198 5.67197035 2.42114198 8.5625 2.5625 C13.80763359 2.90381679 13.80763359 2.90381679 16 4 C16.28875 5.11375 16.5775 6.2275 16.875 7.375 C18.04091036 11.13182228 18.67343387 12.11494586 22 14 C21 19 21 19 20.4375 21.4375 C19.90883942 24.10067735 19.90883942 24.10067735 20 27.25 C20 28.1575 20 29.065 20 30 C19.67 30.33 19.34 30.66 19 31 C18.95907063 33.33297433 18.95758277 35.66705225 19 38 C18.01 37.34 17.02 36.68 16 36 C15.01 36.495 15.01 36.495 14 37 C14.33 37.99 14.66 38.98 15 40 C15.06740865 41.56118428 15.08514456 43.1250252 15.0625 44.6875 C15.05347656 45.49574219 15.04445313 46.30398437 15.03515625 47.13671875 C15.02355469 47.75160156 15.01195312 48.36648437 15 49 C11.99472353 47.49736177 12.02782386 45.08347159 11 42 C10.34 41.67 9.68 41.34 9 41 C8.34 42.32 7.68 43.64 7 45 C5.68 45 4.36 45 3 45 C3 45.66 3 46.32 3 47 C2.34 47 1.68 47 1 47 C1 46.34 1 45.68 1 45 C-0.98 45 -2.96 45 -5 45 C-3.515 44.505 -3.515 44.505 -2 44 C-1.26676204 41.98491642 -1.26676204 41.98491642 -1 40 C-0.67 40.33 -0.34 40.66 0 41 C0.495 38.03 0.495 38.03 1 35 C1.66 35.33 2.32 35.66 3 36 C3.33 36.99 3.66 37.98 4 39 C4.33 37.68 4.66 36.36 5 35 C4.401875 34.773125 3.80375 34.54625 3.1875 34.3125 C0.27703356 32.56622014 -0.54454331 31.07537176 -2 28 C-2.26262412 25.21844351 -2.37594128 22.70607725 -2.3125 19.9375 C-2.31572266 19.23044922 -2.31894531 18.52339844 -2.32226562 17.79492188 C-2.28259499 13.95408345 -1.86066397 11.33154458 0 8 C0.23920955 5.86712627 0.23920955 5.86712627 0.125 3.75 C0.08375 2.5125 0.0425 1.275 0 0 Z " fill="#C08371" transform="translate(563,109)"/>
<path d="M0 0 C2.56877891 1.28438945 2.65554466 2.1944878 3.6640625 4.83984375 C3.97746582 5.64679688 4.29086914 6.45375 4.61376953 7.28515625 C5.11432861 8.59806641 5.11432861 8.59806641 5.625 9.9375 C10.76090082 23.08540609 16.2609471 36.03770119 22.87109375 48.51953125 C24.01153708 51.02534963 24.57642366 53.28813767 25 56 C21.98612336 59.11822675 19.83006174 60.27982833 15.57421875 60.390625 C13.94485182 60.36423849 12.31570984 60.31682471 10.6875 60.25 C9.43356445 60.22292969 9.43356445 60.22292969 8.15429688 60.1953125 C6.10236772 60.14841126 4.05103244 60.07667411 2 60 C1.19783974 56.41535907 0.82152709 53.00466113 0.68359375 49.3359375 C0.64161865 48.22573242 0.59964355 47.11552734 0.55639648 45.97167969 C0.51716064 44.78477539 0.4779248 43.59787109 0.4375 42.375 C0.37381226 40.54050293 0.37381226 40.54050293 0.30883789 38.66894531 C-0.10086284 25.77944716 -0.10059227 12.8943814 0 0 Z " fill="#F5F4F5" transform="translate(584,373)"/>
<path d="M0 0 C0.33 0 0.66 0 1 0 C1.33 8.91 1.66 17.82 2 27 C-14.83 27 -31.66 27 -49 27 C-48.505 25.515 -48.505 25.515 -48 24 C-47.34 24.33 -46.68 24.66 -46 25 C-39.24124479 25.76632726 -33.50546603 25.19968242 -28 21 C-26.99252502 19.75148934 -26.01502521 18.47842232 -25.0625 17.1875 C-21.07663216 12.18416238 -15.79316271 10.48506517 -9.95336914 8.34643555 C-9.23141357 8.0812915 -8.50945801 7.81614746 -7.765625 7.54296875 C-7.11368164 7.31633545 -6.46173828 7.08970215 -5.79003906 6.85620117 C-3.69514581 5.8541839 -2.48468411 4.77992758 -1 3 C-0.67 2.01 -0.34 1.02 0 0 Z " fill="#17282F" transform="translate(608,325)"/>
<path d="M0 0 C0.99 0 1.98 0 3 0 C5.47261775 3.78805039 5.38459656 7.68790656 5.375 12.0625 C5.37338867 12.82473877 5.37177734 13.58697754 5.37011719 14.37231445 C5.22885457 20.91678982 3.54398624 25.9979172 1 32 C-2.50348012 42.05877219 -3.72594153 51.44874893 -4 62 C-3.44119141 61.31357422 -3.44119141 61.31357422 -2.87109375 60.61328125 C-0.42642051 58.50545234 1.83287739 58.02793554 4.9375 57.1875 C9.75912035 55.64984106 9.75912035 55.64984106 13.5 52.3125 C14.32799884 50.48400257 15.14278477 48.64862532 15.8984375 46.7890625 C18.00344089 41.72021434 19.86897281 37.54171477 25 35 C28.53290028 33.92476948 32.0578873 33.00104174 35.66015625 32.1875 C39.56897142 30.79769905 41.38148444 29.18506711 44 26 C44.97510428 24.06452223 44.97510428 24.06452223 45.3125 22.1875 C45.6528125 20.6096875 45.6528125 20.6096875 46 19 C46.33 19 46.66 19 47 19 C47.35399338 22.71693054 47.12439143 24.75121713 45.4375 28.125 C41.09614579 33.24557163 36.7119825 34.90229563 30.375 36.4375 C25.56948534 37.68653938 22.94555479 38.8048159 20 43 C19.30013065 44.65299882 18.63602228 46.32140002 18 48 C16.31393725 52.43908709 14.98458737 55.17758394 11 58 C7.94169834 59.14375509 4.88493538 60.12220025 1.7421875 61.0078125 C-1.00574372 62.00207821 -2.27500322 62.67899105 -4 65 C-4.7269226 68.10839021 -4.7269226 68.10839021 -5 71 C-5.33 71 -5.66 71 -6 71 C-6.495 68.03 -6.495 68.03 -7 65 C-7.99 64.67 -8.98 64.34 -10 64 C-9.44852329 59.5533562 -8.62443247 55.33108824 -7.48828125 50.99951172 C-3.64494986 36.64767627 -3.64494986 36.64767627 -7 22.6875 C-7.66 21.800625 -8.32 20.91375 -9 20 C-8.57074219 19.51015625 -8.14148438 19.0203125 -7.69921875 18.515625 C-5.41526358 15.13432125 -4.18128816 11.57584741 -2.8125 7.75 C-2.53986328 7.00492188 -2.26722656 6.25984375 -1.98632812 5.4921875 C-1.31820644 3.66364395 -0.65828109 1.8321092 0 0 Z " fill="#D1D7D8" transform="translate(557,201)"/>
<path d="M0 0 C0.33 0 0.66 0 1 0 C1.06731323 1.88489136 1.06731323 1.88489136 1.13598633 3.80786133 C1.3061104 8.46571686 1.4950436 13.12265138 1.68969727 17.77954102 C1.77134011 19.79594082 1.8478665 21.8125545 1.91918945 23.8293457 C2.02254226 26.7267883 2.14421821 29.62296572 2.26953125 32.51953125 C2.29779495 33.42274612 2.32605865 34.325961 2.35517883 35.25654602 C2.39499374 36.09719101 2.43480865 36.937836 2.47583008 37.80395508 C2.50469803 38.54341873 2.53356598 39.28288239 2.56330872 40.04475403 C3.10923633 42.48909585 4.18438633 43.33633767 6 45 C6.45086345 47.75885494 6.18192449 50.18017041 6 53 C5.67 53.33 5.34 53.66 5 54 C4.76807135 55.51469448 4.58784762 57.03754562 4.4375 58.5625 C4.35371094 59.38878906 4.26992188 60.21507812 4.18359375 61.06640625 C4.09271484 62.02353516 4.09271484 62.02353516 4 63 C4.70125 63.04898438 5.4025 63.09796875 6.125 63.1484375 C11.96734159 63.60883942 17.36093962 64.40403951 23 66 C22.67 68.31 22.34 70.62 22 73 C15.73 72.67 9.46 72.34 3 72 C2.34 73.98 1.68 75.96 1 78 C-0.74067543 74.74603466 -1.95494992 71.43464968 -3.125 67.9375 C-3.47820313 66.89464844 -3.83140625 65.85179687 -4.1953125 64.77734375 C-5 62 -5 62 -5 59 C-2.69 59 -0.38 59 2 59 C1.84152588 58.27530518 1.68305176 57.55061035 1.51977539 56.80395508 C1.03901777 54.21048338 0.80242678 51.7680216 0.68359375 49.13671875 C0.64169922 48.25048828 0.59980469 47.36425781 0.55664062 46.45117188 C0.51732422 45.53916016 0.47800781 44.62714844 0.4375 43.6875 C0.39431641 42.75615234 0.35113281 41.82480469 0.30664062 40.86523438 C0.20102775 38.57695546 0.09892248 36.28857628 0 34 C-0.83660156 34.76699219 -1.67320312 35.53398437 -2.53515625 36.32421875 C-5.85070505 39.08928335 -9.37963114 40.45560363 -13.4375 41.8125 C-19.24506183 43.92114362 -22.74788709 46.22404076 -26.4765625 51.1640625 C-29.7016142 55.05066327 -33.69628804 56.76658425 -38.66015625 57.26953125 C-45.25226639 57.37386681 -45.25226639 57.37386681 -48 56 C-48.66 56.66 -49.32 57.32 -50 58 C-50 56.35 -50 54.7 -50 53 C-49.01 53.33 -48.02 53.66 -47 54 C-40.02171263 54.72367425 -34.44884692 54.67696906 -28.64453125 50.4921875 C-26.75920063 48.87609874 -26.75920063 48.87609874 -24.75 46 C-21.24167514 41.34218986 -15.26945464 39.97069035 -10 38 C-5.77842906 36.2965591 -4.44395663 35.75472627 -2.125 31.8125 C-1.75375 30.884375 -1.3825 29.95625 -1 29 C-0.34 29 0.32 29 1 29 C0.83628906 28.08089844 0.67257812 27.16179687 0.50390625 26.21484375 C-0.23937095 21.01190332 -0.10685707 15.80687095 -0.0625 10.5625 C-0.05798828 9.54478516 -0.05347656 8.52707031 -0.04882812 7.47851562 C-0.03712437 4.98561491 -0.02072848 2.49283926 0 0 Z " fill="#C5C8CB" transform="translate(608,294)"/>
<path d="M0 0 C4.84001047 1.64377714 7.4082536 5.01265111 10.3125 9.125 C11.65882052 13.16396157 11.49667548 16.8962147 11.5 21.125 C11.51224609 21.94484375 11.52449219 22.7646875 11.53710938 23.609375 C11.54000977 24.79273438 11.54000977 24.79273438 11.54296875 26 C11.54707764 26.71929687 11.55118652 27.43859375 11.55541992 28.1796875 C11.3125 30.125 11.3125 30.125 9.3125 33.125 C3.23540328 30.36268331 -0.90758029 24.62064559 -3.87890625 18.78515625 C-4.90151095 15.42093499 -4.95230335 12.44959461 -4.9375 8.9375 C-4.94265625 7.70644531 -4.9478125 6.47539062 -4.953125 5.20703125 C-4.61372389 1.26898017 -4.03095856 0.18748644 0 0 Z " fill="#F44E59" transform="translate(118.6875,371.875)"/>
<path d="M0 0 C0 0.66 0 1.32 0 2 C0.99 2.33 1.98 2.66 3 3 C-35.28 3 -73.56 3 -113 3 C-113.33 2.34 -113.66 1.68 -114 1 C-99.43155576 0.86950782 -84.86311061 0.73911852 -70.29466438 0.60884857 C-63.53058962 0.54836289 -56.76651517 0.48784369 -50.00244141 0.42724609 C-43.47967474 0.3688104 -36.95690726 0.31046743 -30.43413925 0.25218201 C-27.94056038 0.22988481 -25.44698178 0.20755609 -22.95340347 0.18519592 C-19.47170331 0.15398045 -15.99000217 0.12287519 -12.50830078 0.09179688 C-11.46820862 0.08244614 -10.42811646 0.0730954 -9.35650635 0.0634613 C-8.41137177 0.05504715 -7.46623718 0.046633 -6.49246216 0.03796387 C-5.66837923 0.03058952 -4.8442963 0.02321518 -3.99524117 0.01561737 C-2.66352473 0.00519361 -1.33175723 0 0 0 Z " fill="#D8D7D7" transform="translate(202,432)"/>
<path d="M0 0 C5.56383057 0.09988924 10.05192603 2.2100806 14.5625 5.375 C16.88437742 7.86733271 18.7895052 10.47045974 20.5625 13.375 C14.58045185 15.03218901 8.94868193 15.34119419 3.25 12.625 C0.21628304 10.89923287 -2.3580468 9.23424815 -4.4375 6.375 C-4.75 3.6875 -4.75 3.6875 -4.4375 1.375 C-3.4375 0.375 -3.4375 0.375 0 0 Z " fill="#F5545D" transform="translate(111.4375,407.625)"/>
<path d="M0 0 C2.50781564 0.58902431 3.5245578 1.25880562 5.2578125 3.140625 C7.36954592 6.81912838 8.07535722 8.37941481 7.1953125 12.515625 C4.25708246 16.18841255 2.81201053 17.36145049 -1.8046875 18.515625 C-1.8046875 21.815625 -1.8046875 25.115625 -1.8046875 28.515625 C-1.1446875 28.515625 -0.4846875 28.515625 0.1953125 28.515625 C-0.4646875 29.835625 -1.1246875 31.155625 -1.8046875 32.515625 C-2.4646875 32.515625 -3.1246875 32.515625 -3.8046875 32.515625 C-3.9490625 31.71125 -4.0934375 30.906875 -4.2421875 30.078125 C-4.54603999 27.59458794 -4.54603999 27.59458794 -5.8046875 26.515625 C-5.87712803 24.49598301 -5.88845938 22.47395376 -5.8671875 20.453125 C-5.85816406 19.34839844 -5.84914063 18.24367188 -5.83984375 17.10546875 C-5.82824219 16.25082031 -5.81664062 15.39617187 -5.8046875 14.515625 C-2.8346875 13.855625 0.1353125 13.195625 3.1953125 12.515625 C2.5353125 10.205625 1.8753125 7.895625 1.1953125 5.515625 C-2.17904936 5.18181686 -2.17904936 5.18181686 -5.8046875 5.515625 C-7.57878558 7.43585203 -7.57878558 7.43585203 -8.8046875 9.515625 C-9.7946875 9.515625 -10.7846875 9.515625 -11.8046875 9.515625 C-11.47825939 6.57777203 -10.9222469 4.69686241 -9.3046875 2.203125 C-6.09604027 0.03728812 -3.82248418 -0.17661643 0 0 Z " fill="#EC6369" transform="translate(507.8046875,75.484375)"/>
<path d="M0 0 C4.88243274 0.41849423 6.74262773 2.49206063 10 6 C10.7022168 6.43932861 11.40443359 6.87865723 12.12792969 7.33129883 C14 9 14 9 14.45410156 11.4519043 C14.4331543 12.39976807 14.41220703 13.34763184 14.390625 14.32421875 C14.37773438 15.35224609 14.36484375 16.38027344 14.3515625 17.43945312 C14.31804688 18.51130859 14.28453125 19.58316406 14.25 20.6875 C14.23195313 21.77095703 14.21390625 22.85441406 14.1953125 23.97070312 C14.14813508 26.64802146 14.08232249 29.32356909 14 32 C13.34 32 12.68 32 12 32 C12 30.68 12 29.36 12 28 C11.34 28 10.68 28 10 28 C10 26.68 10 25.36 10 24 C9.34 24 8.68 24 8 24 C8 22.68 8 21.36 8 20 C7.34 20 6.68 20 6 20 C6 18.02 6 16.04 6 14 C5.34 14 4.68 14 4 14 C4 12.02 4 10.04 4 8 C3.34 8 2.68 8 2 8 C2 6.02 2 4.04 2 2 C1.34 2 0.68 2 0 2 C0 1.34 0 0.68 0 0 Z " fill="#E94955" transform="translate(580,164)"/>
<path d="M0 0 C2 2 2 2 2.0625 5.1875 C0.65957098 10.22153944 -1.72244967 13.03344741 -6 16 C-8.49374026 16.81516848 -10.34246208 16.94576453 -13 17 C-14.60127074 13.79745853 -14.40701607 11.54685436 -14 8 C-10.44752429 2.30030004 -6.93791625 -0.53368587 0 0 Z " fill="#F1515B" transform="translate(151,395)"/>
<path d="M0 0 C5.875 3.75 5.875 3.75 7 6 C6.78531501 9.33502028 6.50138205 12.64873197 6.140625 15.97070312 C5.73461323 20.74134148 6.31775734 23.09855613 9 27 C9.53063876 29.88729916 9.29365151 32.01454298 9 35 C8.01 35.66 7.02 36.32 6 37 C5.73445312 36.39671875 5.46890625 35.7934375 5.1953125 35.171875 C4.84210937 34.37265625 4.48890625 33.5734375 4.125 32.75 C3.60292969 31.56664062 3.60292969 31.56664062 3.0703125 30.359375 C2.06451424 28.02581611 2.06451424 28.02581611 0.8359375 26.046875 C-0.57884282 22.58264655 0.38924498 19.27528516 0.90625 15.65625 C1.01052032 12.7019243 0.38333667 11.54388878 -1 9 C-1.29888997 6.26946281 -1.13585901 3.7624666 -1 1 C-0.67 0.67 -0.34 0.34 0 0 Z " fill="#1D2C33" transform="translate(595,124)"/>
<path d="M0 0 C1.67542976 0.28604898 3.34385343 0.61781233 5 1 C5.33 2.65 5.66 4.3 6 6 C2.98350694 7.46743436 -0.03891051 8.92225103 -3.0625 10.375 C-3.91005859 10.7875 -4.75761719 11.2 -5.63085938 11.625 C-10.36981009 13.89384127 -14.89645626 15.73969476 -20 17 C-10.11214789 5.20933099 -10.11214789 5.20933099 -2.671875 1.796875 C-1.00549945 1.11685544 -1.00549945 1.11685544 0 0 Z " fill="#35535E" transform="translate(620,420)"/>
<path d="M0 0 C0.33 0 0.66 0 1 0 C1 1.65 1 3.3 1 5 C6.61 5 12.22 5 18 5 C15 8 15 8 11.77539062 8.26464844 C10.40184585 8.22843584 9.02869292 8.17523107 7.65625 8.109375 C6.50283867 8.07374702 6.50283867 8.07374702 5.3261261 8.03739929 C3.62317281 7.98345372 1.92042826 7.92260632 0.21792603 7.85592651 C-4.54770381 7.67019425 -9.31492819 7.53636527 -14.08203125 7.39453125 C-15.13932938 7.36170547 -16.1966275 7.3288797 -17.28596497 7.2950592 C-32.14926359 6.84851193 -47.01808971 6.6751263 -61.88626099 6.46955872 C-65.70804816 6.41631714 -69.52980376 6.36090271 -73.3515625 6.30566406 C-80.56767951 6.20167004 -87.78382624 6.09998787 -95 6 C-95 5.34 -95 4.68 -95 4 C-86.6001561 4.1093261 -78.20037052 4.22225605 -69.80063152 4.33933926 C-65.89697407 4.39364828 -61.99330921 4.44688081 -58.08959961 4.49731445 C-38.71241594 4.74855083 -19.36231578 5.16087413 0 6 C0 4.02 0 2.04 0 0 Z " fill="#ADAEAF" transform="translate(585,428)"/>
<path d="M0 0 C5.61 0 11.22 0 17 0 C17 1.98 17 3.96 17 6 C8.09 6 -0.82 6 -10 6 C-9.67 5.34 -9.34 4.68 -9 4 C-6.93359375 3.3671875 -6.93359375 3.3671875 -4.4375 2.875 C-3.61121094 2.70742188 -2.78492188 2.53984375 -1.93359375 2.3671875 C-0.97646484 2.18542969 -0.97646484 2.18542969 0 2 C0 1.34 0 0.68 0 0 Z " fill="#385D66" transform="translate(568,428)"/>
<path d="M0 0 C0.33 1.32 0.66 2.64 1 4 C1.66 4 2.32 4 3 4 C3 2.68 3 1.36 3 0 C3.66 0 4.32 0 5 0 C4.73445312 0.86496094 4.46890625 1.72992188 4.1953125 2.62109375 C0.64789277 15.27010496 -0.23029588 27.92128769 -1 41 C-1.33 41 -1.66 41 -2 41 C-2.33 39.02 -2.66 37.04 -3 35 C-3.99 34.67 -4.98 34.34 -6 34 C-5.34321853 28.77995562 -4.27628435 23.78744454 -3 18.6875 C-1.47772387 12.44711761 -0.40812914 6.42803401 0 0 Z " fill="#CAC4C7" transform="translate(553,231)"/>
<path d="M0 0 C0.66 0.33 1.32 0.66 2 1 C1.67 1.33 1.34 1.66 1 2 C20.305 2.495 20.305 2.495 40 3 C39.67 3.66 39.34 4.32 39 5 C23.49 5 7.98 5 -8 5 C-2.85714286 1.14285714 -2.85714286 1.14285714 0 0 Z " fill="#DFE0DE" transform="translate(615,430)"/>
<path d="M0 0 C0.77354079 2.98365732 1.42326427 5.97213744 2 9 C2.28875 9.9075 2.5775 10.815 2.875 11.75 C3.04012003 16.0431209 1.40960557 18.21550722 -0.78515625 21.80859375 C-2.27458153 24.49530623 -2.76545633 26.95093225 -3 30 C-3.33 30 -3.66 30 -4 30 C-4.25060425 28.10688117 -4.47460633 26.21022961 -4.6875 24.3125 C-4.87892578 22.72888672 -4.87892578 22.72888672 -5.07421875 21.11328125 C-4.98745386 17.47372231 -3.90304644 16.03023548 -2 13 C-1.71362171 10.43380935 -1.71362171 10.43380935 -1.9375 7.875 C-2.20795534 3.31193301 -2.20795534 3.31193301 0 0 Z " fill="#16252C" transform="translate(555,123)"/>
<path d="M0 0 C1.485 0.99 1.485 0.99 3 2 C4.9896995 2.39013716 6.99019869 2.73202649 9 3 C9 3.66 9 4.32 9 5 C9.99 5.33 10.98 5.66 12 6 C11.67 6.66 11.34 7.32 11 8 C10.76467966 12.86328711 10.71178404 15.70959508 13 20 C13.19203367 23.00852752 13.14848107 25.46581959 12.33984375 28.375 C11.90643346 31.72272087 12.74281645 33.14531006 14.375 36.0625 C16.02174805 39.04780583 17.3335858 41.644682 18 45 C16.515 45.495 16.515 45.495 15 46 C14.9175 44.96875 14.835 43.9375 14.75 42.875 C14.29949645 38.95538787 14.29949645 38.95538787 11.875 36.3125 C9.33859974 31.83152621 10.09704094 28.6851903 10.8359375 23.70703125 C11.28707734 20.77626188 11.28707734 20.77626188 9 18 C8.5859375 15.08203125 8.5859375 15.08203125 8.375 11.8125 C8.30023437 10.72582031 8.22546875 9.63914062 8.1484375 8.51953125 C8.09945312 7.68808594 8.05046875 6.85664062 8 6 C6.68 5.67 5.36 5.34 4 5 C3.67 5.66 3.34 6.32 3 7 C0 2.25 0 2.25 0 0 Z " fill="#2B3E46" transform="translate(584,117)"/>
<path d="M0 0 C2.62754892 3.00291306 3.72999902 6.03914617 5.046875 9.765625 C6.89652689 14.10169419 9.6697419 19.83487095 14 22 C14 22.66 14 23.32 14 24 C14.99 24.33 15.98 24.66 17 25 C17 25.33 17 25.66 17 26 C13.8125 26.5 13.8125 26.5 10 26 C4.35109113 20.80740967 2.05631554 11.10522645 0 4 C0 2.68 0 1.36 0 0 Z " fill="#C23C3F" transform="translate(572,192)"/>
<path d="M0 0 C2.22696514 2.22696514 2.91729646 3.79350126 3.1328125 6.9375 C3.13023437 7.618125 3.12765625 8.29875 3.125 9 C3.12757813 9.680625 3.13015625 10.36125 3.1328125 11.0625 C3 13 3 13 2 16 C1.93029948 18.39490986 1.91551997 20.79167691 1.9375 23.1875 C1.94652344 24.45980469 1.95554687 25.73210937 1.96484375 27.04296875 C1.97644531 28.01878906 1.98804688 28.99460938 2 30 C1.34 29.67 0.68 29.34 0 29 C-0.26125082 26.37264802 -0.42165499 23.82127489 -0.5 21.1875 C-0.64069417 14.82525638 -0.64069417 14.82525638 -3 9 C-3.40473257 5.76213943 -3.29315808 4.45195204 -1.5 1.6875 C-1.005 1.130625 -0.51 0.57375 0 0 Z " fill="#192930" transform="translate(584,136)"/>
<path d="M0 0 C0.33 0 0.66 0 1 0 C1.2475 1.093125 1.495 2.18625 1.75 3.3125 C3.08209321 8.68913709 5.04066721 13.82583961 7 19 C6.97679687 18.37351562 6.95359375 17.74703125 6.9296875 17.1015625 C6.90261719 15.87566406 6.90261719 15.87566406 6.875 14.625 C6.85179687 13.81289063 6.82859375 13.00078125 6.8046875 12.1640625 C7 10 7 10 9 8 C9 8.66 9 9.32 9 10 C9.66 10.33 10.32 10.66 11 11 C10.67 11.99 10.34 12.98 10 14 C9.92948886 16.73865287 9.90642235 19.45027588 9.9375 22.1875 C9.94201172 22.93708984 9.94652344 23.68667969 9.95117188 24.45898438 C9.96293646 26.30602383 9.98087135 28.15302213 10 30 C7.28704674 26.48637572 5.15933329 22.87190796 3 19 C3.66 19 4.32 19 5 19 C4.55527344 17.96359375 4.11054688 16.9271875 3.65234375 15.859375 C3.08013686 14.48983065 2.50855483 13.12002512 1.9375 11.75 C1.49567383 10.72712891 1.49567383 10.72712891 1.04492188 9.68359375 C-0.48321625 5.98010605 -1.24129373 3.8159653 0 0 Z " fill="#BABAB7" transform="translate(129,402)"/>
<path d="M0 0 C0.33 0 0.66 0 1 0 C3.91209245 13.15641766 3.91209245 13.15641766 1.9375 19.3125 C0.80558157 23.7647125 0.92832257 27.54043908 2 32 C2.66 32.99 3.32 33.98 4 35 C4 35.99 4 36.98 4 38 C2.0625 37.25 2.0625 37.25 0 36 C-1.2084208 32.69394311 -1.13364751 29.42677126 -1.125 25.9375 C-1.12757813 24.89464844 -1.13015625 23.85179687 -1.1328125 22.77734375 C-1 20 -1 20 0 17 C0.13762809 12.87115722 0.03169248 9.21832595 -0.5625 5.125 C-1 2 -1 2 0 0 Z " fill="#284047" transform="translate(586,132)"/>
<path d="M0 0 C0.66 0 1.32 0 2 0 C2 0.66 2 1.32 2 2 C3.98 2 5.96 2 8 2 C6.02 2.99 6.02 2.99 4 4 C4 7.3 4 10.6 4 14 C4.66 14 5.32 14 6 14 C5.34 15.32 4.68 16.64 4 18 C3.34 18 2.68 18 2 18 C1.855625 17.195625 1.71125 16.39125 1.5625 15.5625 C1.25864751 13.07896294 1.25864751 13.07896294 0 12 C-0.07244053 9.98035801 -0.08377188 7.95832876 -0.0625 5.9375 C-0.05347656 4.83277344 -0.04445313 3.72804688 -0.03515625 2.58984375 C-0.02355469 1.73519531 -0.01195312 0.88054687 0 0 Z " fill="#F7606B" transform="translate(502,90)"/>
<path d="M0 0 C5.87412204 11.37780396 6.50133813 21.46654666 6 34 C5.67 34 5.34 34 5 34 C4.89042969 33.23558594 4.78085937 32.47117187 4.66796875 31.68359375 C3.55883689 24.19019069 2.1847666 16.81067707 0.5859375 9.41015625 C0.03296028 6.19182881 -0.10938228 3.25660885 0 0 Z " fill="#B96B58" transform="translate(578,354)"/>
<path d="M0 0 C-0.66 1.98 -1.32 3.96 -2 6 C-2.66 6 -3.32 6 -4 6 C-3.74875366 6.85609863 -3.74875366 6.85609863 -3.49243164 7.72949219 C-2.98455296 10.07122332 -2.96780246 11.94359387 -3.12109375 14.328125 C-3.16943359 15.12734375 -3.21777344 15.9265625 -3.26757812 16.75 C-3.32365234 17.575 -3.37972656 18.4 -3.4375 19.25 C-3.48970703 20.09046875 -3.54191406 20.9309375 -3.59570312 21.796875 C-3.72495689 23.8649352 -3.86174274 25.9325222 -4 28 C-4.33 28 -4.66 28 -5 28 C-5.74542923 22.2229235 -6.14805613 16.44753107 -6.3125 10.625 C-6.34988281 9.46226562 -6.38726563 8.29953125 -6.42578125 7.1015625 C-6 4 -6 4 -4.10546875 1.5859375 C-2 0 -2 0 0 0 Z " fill="#132125" transform="translate(558,262)"/>
<path d="M0 0 C0.66 0.33 1.32 0.66 2 1 C2.625 3.5625 2.625 3.5625 3 6 C7.455 6.99 7.455 6.99 12 8 C12 8.33 12 8.66 12 9 C10.22992286 9.08114106 8.45877902 9.13925505 6.6875 9.1875 C5.20830078 9.23970703 5.20830078 9.23970703 3.69921875 9.29296875 C0.5647945 8.95276351 -0.01007775 8.316713 -2 6 C-2.99 5.67 -3.98 5.34 -5 5 C-5 7.31 -5 9.62 -5 12 C-5.33 12 -5.66 12 -6 12 C-6.36681223 4.54148472 -6.36681223 4.54148472 -4.6875 2.0625 C-3 1 -3 1 0 0 Z " fill="#1D292C" transform="translate(565,103)"/>
<path d="M0 0 C0.66 0 1.32 0 2 0 C2.33 2.64 2.66 5.28 3 8 C-3.93 8 -10.86 8 -18 8 C-13.66061709 5.83030855 -11.51609592 5.78673896 -6.75 5.875 C-5.48671875 5.89304688 -4.2234375 5.91109375 -2.921875 5.9296875 C-1.95765625 5.95289063 -0.9934375 5.97609375 0 6 C0 4.02 0 2.04 0 0 Z " fill="#DE4E57" transform="translate(614,184)"/>
<path d="M0 0 C0.33 0 0.66 0 1 0 C1 1.65 1 3.3 1 5 C6.61 5 12.22 5 18 5 C15 8 15 8 12.45629883 8.2487793 C11.46654053 8.19117432 10.47678223 8.13356934 9.45703125 8.07421875 C8.38388672 8.01943359 7.31074219 7.96464844 6.20507812 7.90820312 C5.08552734 7.83537109 3.96597656 7.76253906 2.8125 7.6875 C1.11577148 7.5956543 1.11577148 7.5956543 -0.61523438 7.50195312 C-3.41125303 7.34858501 -6.20563763 7.18072046 -9 7 C-9 6.67 -9 6.34 -9 6 C-6.03 6 -3.06 6 0 6 C0 4.02 0 2.04 0 0 Z " fill="#C0C8CA" transform="translate(585,428)"/>
<path d="M0 0 C0 6.6 0 13.2 0 20 C-0.33 20 -0.66 20 -1 20 C-1.33 18.02 -1.66 16.04 -2 14 C-2.99 13.67 -3.98 13.34 -5 13 C-3.73303167 3.76923077 -3.73303167 3.76923077 -3 1 C-1 0 -1 0 0 0 Z " fill="#D7CFD1" transform="translate(552,252)"/>
<path d="M0 0 C0.66 0.66 1.32 1.32 2 2 C1.01 3.98 0.02 5.96 -1 8 C-1.66 8 -2.32 8 -3 8 C-3.33 11.96 -3.66 15.92 -4 20 C-4.33 20 -4.66 20 -5 20 C-5.02697137 17.39576408 -5.04682489 14.79180756 -5.0625 12.1875 C-5.07087891 11.44951172 -5.07925781 10.71152344 -5.08789062 9.95117188 C-5.10259828 6.70077932 -5.03531702 4.10595105 -4 1 C-2.0625 0.1875 -2.0625 0.1875 0 0 Z " fill="#8E6D62" transform="translate(566,117)"/>
<path d="M0 0 C0.33 0 0.66 0 1 0 C1 1.98 1 3.96 1 6 C-7.91 6 -16.82 6 -26 6 C-25.67 5.34 -25.34 4.68 -25 4 C-22.93359375 3.5859375 -22.93359375 3.5859375 -20.4375 3.375 C-19.61121094 3.30023438 -18.78492188 3.22546875 -17.93359375 3.1484375 C-16.97646484 3.07496094 -16.97646484 3.07496094 -16 3 C-16 3.33 -16 3.66 -16 4 C-10.72 4.33 -5.44 4.66 0 5 C0 3.35 0 1.7 0 0 Z " fill="#203F4C" transform="translate(584,428)"/>
<path d="M0 0 C0.66 0.99 1.32 1.98 2 3 C1.67 3.66 1.34 4.32 1 5 C0.34 4.34 -0.32 3.68 -1 3 C-1.99 3.495 -1.99 3.495 -3 4 C-2.67 4.99 -2.34 5.98 -2 7 C-1.93259135 8.56118428 -1.91485544 10.1250252 -1.9375 11.6875 C-1.94652344 12.49574219 -1.95554687 13.30398437 -1.96484375 14.13671875 C-1.97644531 14.75160156 -1.98804688 15.36648437 -2 16 C-2.66 15.67 -3.32 15.34 -4 15 C-4.6328125 13.07421875 -4.6328125 13.07421875 -5.125 10.6875 C-5.29257812 9.90761719 -5.46015625 9.12773437 -5.6328125 8.32421875 C-6 6 -6 6 -6 2 C-4.02 1.34 -2.04 0.68 0 0 Z " fill="#B37968" transform="translate(580,142)"/>
<path d="M0 0 C0 2.97 0 5.94 0 9 C0.99 9.33 1.98 9.66 3 10 C-2.75 10.125 -2.75 10.125 -5 9 C-5 6.36 -5 3.72 -5 1 C-3 0 -3 0 0 0 Z " fill="#3C4041" transform="translate(563,108)"/>
<path d="M0 0 C0.66 0 1.32 0 2 0 C0.27933894 5.44876003 -1.84705349 10.71169451 -4 16 C-4.33 15.34 -4.66 14.68 -5 14 C-5.66 13.67 -6.32 13.34 -7 13 C-5.35 9.37 -3.7 5.74 -2 2 C-1.34 2 -0.68 2 0 2 C0 1.34 0 0.68 0 0 Z " fill="#EFF1EE" transform="translate(336,78)"/>
<path d="M0 0 C1.31878578 0.76002917 2.6298684 1.53343653 3.9375 2.3125 C4.66839844 2.74175781 5.39929688 3.17101562 6.15234375 3.61328125 C8 5 8 5 9 8 C5.88200997 7.24964259 2.81929597 6.36636589 -0.25 5.4375 C-1.14203125 5.16808594 -2.0340625 4.89867187 -2.953125 4.62109375 C-3.62859375 4.41613281 -4.3040625 4.21117187 -5 4 C-4.67 3.34 -4.34 2.68 -4 2 C-2.68 2 -1.36 2 0 2 C0 1.34 0 0.68 0 0 Z " fill="#DB4D57" transform="translate(120,410)"/>
<path d="M0 0 C0.33 0.66 0.66 1.32 1 2 C3.01669827 3.13350534 3.01669827 3.13350534 5 4 C3.329375 4.4021875 3.329375 4.4021875 1.625 4.8125 C-2.21840951 5.65809019 -2.21840951 5.65809019 -4 9 C-4.99 9 -5.98 9 -7 9 C-6.53149863 4.78348764 -4.94559315 0 0 0 Z " fill="#F86B74" transform="translate(503,76)"/>
<path d="M0 0 C0 1.65 0 3.3 0 5 C-4.29 5 -8.58 5 -13 5 C-11.68 4.67 -10.36 4.34 -9 4 C-9 3.34 -9 2.68 -9 2 C-3.375 0 -3.375 0 0 0 Z " fill="#EEF4F2" transform="translate(330,212)"/>
<path d="M0 0 C0.66 0.33 1.32 0.66 2 1 C1.06981474 2.46300982 0.13055973 3.92025579 -0.8125 5.375 C-1.33457031 6.18710937 -1.85664062 6.99921875 -2.39453125 7.8359375 C-4 10 -4 10 -7 12 C-9.6875 12.125 -9.6875 12.125 -12 12 C-11.319375 11.505 -10.63875 11.01 -9.9375 10.5 C-6.21041414 7.32801203 -3.14666758 3.73610099 0 0 Z " fill="#162128" transform="translate(587,338)"/>
<path d="M0 0 C3.25 -0.3125 3.25 -0.3125 7 0 C9.4375 2.5 9.4375 2.5 11 5 C10.01 5.99 9.02 6.98 8 8 C7.608125 7.38125 7.21625 6.7625 6.8125 6.125 C4.72282509 3.67503632 3.02536673 2.98120002 0 2 C0 1.34 0 0.68 0 0 Z " fill="#EF535F" transform="translate(503,76)"/>
<path d="M0 0 C0.33 0 0.66 0 1 0 C1 4.62 1 9.24 1 14 C0.67 14 0.34 14 0 14 C-0.33 15.98 -0.66 17.96 -1 20 C-1.33 20 -1.66 20 -2 20 C-2.0544452 17.79194476 -2.09299283 15.58349446 -2.125 13.375 C-2.14820313 12.14523437 -2.17140625 10.91546875 -2.1953125 9.6484375 C-2.0030428 6.05683959 -1.30258556 3.33338825 0 0 Z " fill="#2C3238" transform="translate(612,249)"/>
<path d="M0 0 C0.33 0 0.66 0 1 0 C1.2475 1.093125 1.495 2.18625 1.75 3.3125 C2.87478446 7.87684273 4.50240442 12.20147713 6.1953125 16.58203125 C7 19 7 19 7 22 C5.68 21.34 4.36 20.68 3 20 C3.66 19.67 4.32 19.34 5 19 C4.55527344 17.96359375 4.11054688 16.9271875 3.65234375 15.859375 C3.08013686 14.48983065 2.50855483 13.12002512 1.9375 11.75 C1.49567383 10.72712891 1.49567383 10.72712891 1.04492188 9.68359375 C-0.48321625 5.98010605 -1.24129373 3.8159653 0 0 Z " fill="#C1BDBE" transform="translate(129,402)"/>
<path d="M0 0 C0.66 0 1.32 0 2 0 C2 1.32 2 2.64 2 4 C-2.95 4 -7.9 4 -13 4 C-13.33 3.34 -13.66 2.68 -14 2 C-9.38 2 -4.76 2 0 2 C0 1.34 0 0.68 0 0 Z " fill="#DE6865" transform="translate(602,214)"/>
<path d="M0 0 C0.33 0 0.66 0 1 0 C1.33910994 2.04071515 1.67102704 4.08262621 2 6.125 C2.185625 7.26195312 2.37125 8.39890625 2.5625 9.5703125 C2.96956049 12.76137602 3.07809902 15.78817791 3 19 C1.02 18.67 -0.96 18.34 -3 18 C-1.68 17.67 -0.36 17.34 1 17 C0.835 16.236875 0.67 15.47375 0.5 14.6875 C-0.16562149 9.77854151 -0.07920078 4.94564886 0 0 Z " fill="#BF4446" transform="translate(557,181)"/>
<path d="M0 0 C0.886875 -0.01417969 1.77375 -0.02835937 2.6875 -0.04296875 C5 0.1875 5 0.1875 7 2.1875 C4.52224905 3.42637548 2.76346293 3.35491669 0 3.375 C-1.3303125 3.39626953 -1.3303125 3.39626953 -2.6875 3.41796875 C-5 3.1875 -5 3.1875 -7 1.1875 C-4.52224905 -0.05137548 -2.76346293 0.02008331 0 0 Z " fill="#192423" transform="translate(575,100.8125)"/>
<path d="M0 0 C0.763125 0.20625 1.52625 0.4125 2.3125 0.625 C0.69655168 2.66619788 -0.9731382 4.66572937 -2.6875 6.625 C-3.3475 6.625 -4.0075 6.625 -4.6875 6.625 C-5.0175 4.975 -5.3475 3.325 -5.6875 1.625 C-2.6875 -0.375 -2.6875 -0.375 0 0 Z " fill="#F0EFF1" transform="translate(341.6875,208.375)"/>
<path d="M0 0 C1.32 0.33 2.64 0.66 4 1 C3.67 6.94 3.34 12.88 3 19 C2.67 19 2.34 19 2 19 C2 14.05 2 9.1 2 4 C0.02 4.99 0.02 4.99 -2 6 C-1.34 4.02 -0.68 2.04 0 0 Z " fill="#1A2126" transform="translate(558,117)"/>
<path d="M0 0 C0.33 0 0.66 0 1 0 C1.09038099 5.15171623 0.84681133 9.91913204 0 15 C-0.33 15 -0.66 15 -1 15 C-1.144375 14.236875 -1.28875 13.47375 -1.4375 12.6875 C-1.9632594 9.91827092 -1.9632594 9.91827092 -3 7 C-2.07796291 4.63477442 -1.08301035 2.29598193 0 0 Z " fill="#0D171F" transform="translate(609,278)"/>
<path d="M0 0 C0.33 0 0.66 0 1 0 C1 2.31 1 4.62 1 7 C4.96 7 8.92 7 13 7 C13 7.66 13 8.32 13 9 C9.61725734 10.12758089 8.23221777 9.81750262 4.8125 9.0625 C3.91144531 8.86785156 3.01039063 8.67320313 2.08203125 8.47265625 C1.39496094 8.31667969 0.70789063 8.16070312 0 8 C0 5.36 0 2.72 0 0 Z " fill="#BB8B7C" transform="translate(563,109)"/>
<path d="M0 0 C0.33 1.32 0.66 2.64 1 4 C1.66 4 2.32 4 3 4 C3 2.68 3 1.36 3 0 C3.66 0 4.32 0 5 0 C4.74445946 1.46109063 4.46999628 2.91888096 4.1875 4.375 C4.03667969 5.18710938 3.88585937 5.99921875 3.73046875 6.8359375 C3 9 3 9 0 11 C0 7.37 0 3.74 0 0 Z " fill="#D8C7C9" transform="translate(553,231)"/>
<path d="M0 0 C0.66 0.33 1.32 0.66 2 1 C0.33333333 2.66666667 -1.33333333 4.33333333 -3 6 C-3.721875 6.763125 -4.44375 7.52625 -5.1875 8.3125 C-7 10 -7 10 -9 10 C-7.61811547 6.78956118 -6.07578097 4.95063635 -3.375 2.75 C-2.74335938 2.22921875 -2.11171875 1.7084375 -1.4609375 1.171875 C-0.73777344 0.59179688 -0.73777344 0.59179688 0 0 Z " fill="#CFCFCF" transform="translate(487,62)"/>
<path d="M0 0 C0.66 0 1.32 0 2 0 C2.66 1.32 3.32 2.64 4 4 C2.68 5.65 1.36 7.3 0 9 C-1 8 -1 8 -1.125 4.5 C-1 1 -1 1 0 0 Z " fill="#EE5763" transform="translate(138,402)"/>
<path d="M0 0 C1.32 0.33 2.64 0.66 4 1 C4 1.99 4 2.98 4 4 C3.34 4 2.68 4 2 4 C2 6.31 2 8.62 2 11 C1.34 11 0.68 11 0 11 C0 7.37 0 3.74 0 0 Z " fill="#FE4653" transform="translate(114,374)"/>
<path d="M0 0 C0.99 0.33 1.98 0.66 3 1 C2.67 3.64 2.34 6.28 2 9 C1.01 9 0.02 9 -1 9 C-0.67 6.03 -0.34 3.06 0 0 Z " fill="#E6DFE2" transform="translate(538,299)"/>
<path d="M0 0 C-5.75 4 -5.75 4 -8 4 C-8 3.34 -8 2.68 -8 2 C-8.66 1.67 -9.32 1.34 -10 1 C-3.71428571 -1.42857143 -3.71428571 -1.42857143 0 0 Z " fill="#F5576A" transform="translate(502,428)"/>
<path d="M0 0 C0.33 0 0.66 0 1 0 C2.22517308 5.66642551 2.09228867 11.23708518 2 17 C1.67 17 1.34 17 1 17 C0.67 15.35 0.34 13.7 0 12 C-0.33 12 -0.66 12 -1 12 C-0.67 8.04 -0.34 4.08 0 0 Z " fill="#2E3B3F" transform="translate(556,307)"/>
<path d="M0 0 C0.28875 0.598125 0.5775 1.19625 0.875 1.8125 C2.04742026 4.19327792 2.04742026 4.19327792 4 7 C4 7.99 4 8.98 4 10 C2.0625 9.4375 2.0625 9.4375 0 8 C-0.8125 4.4375 -0.8125 4.4375 -1 1 C-0.67 0.67 -0.34 0.34 0 0 Z " fill="#25383E" transform="translate(586,160)"/>
<path d="M0 0 C0.33 0 0.66 0 1 0 C1 3.3 1 6.6 1 10 C-0.65 10 -2.3 10 -4 10 C-3.67 7.36 -3.34 4.72 -3 2 C-2.67 2 -2.34 2 -2 2 C-2 3.98 -2 5.96 -2 8 C-1.34 8 -0.68 8 0 8 C0 5.36 0 2.72 0 0 Z " fill="#AB6859" transform="translate(583,154)"/>
<path d="M0 0 C2.62187494 1.04874998 3.79371361 1.64931313 5.25 4.125 C5.4975 4.74375 5.745 5.3625 6 6 C4.68 6 3.36 6 2 6 C0 3 0 3 0 0 Z " fill="#182326" transform="translate(584,104)"/>
<path d="M0 0 C0.99 0 1.98 0 3 0 C3.66 1.98 4.32 3.96 5 6 C2.03 5.505 2.03 5.505 -1 5 C-0.67 3.35 -0.34 1.7 0 0 Z " fill="#EFEEEB" transform="translate(557,201)"/>
<path d="M0 0 C-0.33 1.98 -0.66 3.96 -1 6 C-1.33 4.68 -1.66 3.36 -2 2 C-6.62 2 -11.24 2 -16 2 C-16 1.67 -16 1.34 -16 1 C-13.70839646 0.83246763 -11.41671509 0.66599948 -9.125 0.5 C-7.84882812 0.4071875 -6.57265625 0.314375 -5.2578125 0.21875 C-3.50763316 0.10123196 -1.75412035 0 0 0 Z " fill="#BB9178" transform="translate(612,192)"/>
<path d="M0 0 C0.99 0.33 1.98 0.66 3 1 C2.25 7.75 2.25 7.75 0 10 C0 6.7 0 3.4 0 0 Z " fill="#BC7966" transform="translate(570,144)"/>
<path d="M0 0 C2 2 2 2 2 5 C0.35 5.66 -1.3 6.32 -3 7 C-3.1875 4.625 -3.1875 4.625 -3 2 C-2.01 1.34 -1.02 0.68 0 0 Z " fill="#415D65" transform="translate(624,421)"/>
<path d="M0 0 C2 1 2 1 2.6328125 2.84765625 C2.79523438 3.57855469 2.95765625 4.30945313 3.125 5.0625 C3.29257813 5.79597656 3.46015625 6.52945312 3.6328125 7.28515625 C3.75398438 7.85105469 3.87515625 8.41695313 4 9 C0.125 7.25 0.125 7.25 -1 5 C-0.34 5 0.32 5 1 5 C0.67 3.35 0.34 1.7 0 0 Z " fill="#F45A65" transform="translate(123,395)"/>
<path d="M0 0 C0.66 0 1.32 0 2 0 C2 0.66 2 1.32 2 2 C2.66 2 3.32 2 4 2 C4.33 3.32 4.66 4.64 5 6 C3.35 5.67 1.7 5.34 0 5 C0 3.35 0 1.7 0 0 Z " fill="#F04F52" transform="translate(116,378)"/>
<path d="M0 0 C2.64 0 5.28 0 8 0 C8 0.33 8 0.66 8 1 C5.69 1 3.38 1 1 1 C1.33 2.98 1.66 4.96 2 7 C1.01 7 0.02 7 -1 7 C-0.67 4.69 -0.34 2.38 0 0 Z " fill="#C3A59E" transform="translate(602,352)"/>
<path d="M0 0 C1.98 0 3.96 0 6 0 C5.01 0.33 4.02 0.66 3 1 C2.67 2.65 2.34 4.3 2 6 C1.34 5.67 0.68 5.34 0 5 C0 3.35 0 1.7 0 0 Z " fill="#C28E7D" transform="translate(554,200)"/>
<path d="M0 0 C0 0.99 0 1.98 0 3 C-2.64 3 -5.28 3 -8 3 C-8 2.34 -8 1.68 -8 1 C-2.25 0 -2.25 0 0 0 Z " fill="#FE505C" transform="translate(512,89)"/>
<path d="M0 0 C1.99097846 2.98646769 2.94124926 5.59687262 4 9 C2.68 8.67 1.36 8.34 0 8 C0 5.36 0 2.72 0 0 Z " fill="#F0E6E2" transform="translate(586,377)"/>
<path d="M0 0 C0 2.64 0 5.28 0 8 C-1.5 6.75 -1.5 6.75 -3 5 C-3 3.68 -3 2.36 -3 1 C-1 0 -1 0 0 0 Z " fill="#E4DFDF" transform="translate(552,252)"/>
<path d="M0 0 C1.65 0 3.3 0 5 0 C5 0.66 5 1.32 5 2 C2.04335481 3.4783226 -0.74229737 3.06032783 -4 3 C-2.68 2.67 -1.36 2.34 0 2 C0 1.34 0 0.68 0 0 Z " fill="#462731" transform="translate(594,168)"/>
<path d="M0 0 C0.99 0 1.98 0 3 0 C3 0.66 3 1.32 3 2 C3.66 2 4.32 2 5 2 C4.34 3.32 3.68 4.64 3 6 C2.34 6 1.68 6 1 6 C0.67 4.02 0.34 2.04 0 0 Z " fill="#EFACB4" transform="translate(503,102)"/>
<path d="M0 0 C1.0625 1.875 1.0625 1.875 2 4 C1.67 4.66 1.34 5.32 1 6 C0.01 6 -0.98 6 -2 6 C-1.125 1.125 -1.125 1.125 0 0 Z " fill="#F4515B" transform="translate(498,79)"/>
</svg>
